<svg width="153" height="52" viewBox="0 0 153 52" fill="none" xmlns="http://www.w3.org/2000/svg">
<rect width="153" height="52" rx="26" fill="#FAC60E"/>
<ellipse cx="25.5" cy="26" rx="14.5" ry="14" fill="white"/>
<path d="M34 26L24 20.2265V31.7735L34 26ZM18 27H25V25H18V27Z" fill="#FFC700"/>
<path d="M53.574 17.942H57.714V30.398H53.574V29.192H56.49V19.148H53.574V17.942ZM53.772 21.686H57.444V22.856H53.772V21.686ZM58.182 18.95H68.766V20.066H58.182V18.95ZM53.772 25.394H57.444V26.564H53.772V25.394ZM53.034 17.942H54.24V31.982H53.034V17.942ZM60.648 26.168V27.5H65.922V26.168H60.648ZM60.648 23.936V25.232H65.922V23.936H60.648ZM59.442 22.928H67.182V28.49H59.442V22.928ZM67.506 20.426L68.496 21.002C67.92 21.65 67.29 22.316 66.768 22.766L65.976 22.28C66.48 21.776 67.146 20.966 67.506 20.426ZM58.182 21.092L58.992 20.498C59.694 21.038 60.378 21.794 60.684 22.37L59.82 23.054C59.514 22.478 58.83 21.65 58.182 21.092ZM65.292 29.732L66.264 29.174C67.308 30.092 68.424 31.334 68.928 32.198L67.902 32.882C67.38 32 66.282 30.668 65.292 29.732ZM62.664 28.076H63.924V32.036C63.924 32.684 63.816 33.044 63.348 33.242C62.88 33.458 62.178 33.458 61.026 33.458C60.99 33.116 60.774 32.594 60.612 32.252C61.422 32.288 62.16 32.27 62.376 32.27C62.592 32.252 62.664 32.216 62.664 32.018V28.076ZM62.466 16.88L63.69 17.06C62.898 20.858 61.134 23.486 58.326 25.124C58.182 24.854 57.786 24.332 57.534 24.08C60.198 22.676 61.782 20.264 62.466 16.88ZM59.64 29.228L60.882 29.552C60.216 30.83 59.154 32.126 58.146 32.936C57.912 32.72 57.408 32.306 57.12 32.144C58.11 31.406 59.082 30.344 59.64 29.228ZM64.824 19.472C65.652 21.434 67.344 23.252 69.216 24.08C68.928 24.314 68.532 24.782 68.352 25.088C66.39 24.08 64.662 22.046 63.744 19.814L64.824 19.472ZM74.724 21.452H79.926V22.514H74.724V21.452ZM74.724 24.512H79.926V25.538H74.724V24.512ZM74.724 27.644H79.926V28.706H74.724V27.644ZM82.392 25.412H89.25V26.582H82.392V25.412ZM75.66 18.5H78.648V19.562H75.66V18.5ZM81.24 17.798H88.278V18.95H81.24V17.798ZM81.024 28.778H89.556V29.984H81.024V28.778ZM84.822 23.558H86.118V33.368H84.822V23.558ZM76.956 21.974H77.928V28.094H76.956V21.974ZM87.846 17.798H89.07C89.07 17.798 89.07 18.14 89.052 18.302C88.926 21.308 88.746 22.478 88.368 22.892C88.116 23.198 87.846 23.306 87.378 23.342C87.018 23.378 86.262 23.378 85.506 23.342C85.488 22.982 85.362 22.514 85.2 22.208C85.92 22.28 86.568 22.28 86.82 22.28C87.072 22.298 87.234 22.262 87.342 22.118C87.576 21.848 87.72 20.804 87.846 17.978V17.798ZM82.464 23.72L83.634 23.954C83.274 25.628 82.644 27.266 81.888 28.346C81.654 28.184 81.114 27.914 80.826 27.77C81.6 26.762 82.158 25.25 82.464 23.72ZM75.624 16.88L76.866 17.15C76.2 19.58 75.102 21.902 73.824 23.432C73.608 23.216 73.086 22.802 72.798 22.622C74.076 21.236 75.084 19.094 75.624 16.88ZM74.202 21.452H75.318V26.24C75.318 28.436 75.102 31.478 73.824 33.476C73.626 33.296 73.122 32.99 72.852 32.864C74.076 30.956 74.202 28.274 74.202 26.24V21.452ZM79.566 21.452H80.7V31.964C80.7 32.63 80.556 33.008 80.088 33.206C79.638 33.404 78.9 33.422 77.658 33.422C77.604 33.116 77.406 32.594 77.244 32.27C78.162 32.306 78.972 32.306 79.224 32.288C79.458 32.27 79.566 32.198 79.566 31.964V21.452ZM83.796 18.176H85.038C84.732 20.66 83.958 22.712 81.438 23.846C81.276 23.558 80.952 23.126 80.682 22.928C82.896 21.992 83.544 20.21 83.796 18.176ZM78.324 18.5H78.594L78.774 18.428L79.566 18.95C79.188 20.066 78.504 21.398 77.964 22.244C77.748 22.064 77.352 21.83 77.1 21.722C77.55 20.912 78.054 19.616 78.324 18.716V18.5ZM93.912 17.852H109.59V19.076H93.912V17.852ZM101.166 18.374H102.57V25.358C102.57 28.832 101.616 31.928 94.398 33.458C94.254 33.17 93.876 32.594 93.588 32.27C100.608 30.974 101.166 28.328 101.166 25.34V18.374ZM96.846 24.602V26.438H107.106V24.602H96.846ZM96.846 21.722V23.522H107.106V21.722H96.846ZM95.568 20.588H108.474V27.572H95.568V20.588ZM97.296 27.716C99.582 31.28 103.686 31.892 110.184 32.054C109.95 32.378 109.68 32.954 109.608 33.386C102.984 33.116 98.556 32.27 96.144 28.184L97.296 27.716ZM117.798 20.858L118.698 20.066C120.048 20.696 121.704 21.704 122.514 22.46L121.56 23.342C120.786 22.586 119.148 21.524 117.798 20.858ZM126.114 18.41H126.384L126.618 18.338L127.5 18.878C125.16 23.072 119.832 25.592 115.08 26.636C114.954 26.294 114.684 25.736 114.432 25.448C118.968 24.602 124.152 22.172 126.114 18.626V18.41ZM120.102 18.41H126.456V19.544H120.102V18.41ZM121.434 16.862L122.946 17.186C121.29 19.094 118.842 20.876 115.494 22.208C115.296 21.884 114.882 21.434 114.576 21.2C117.816 20.066 120.192 18.374 121.434 16.862ZM120.102 27.464L121.092 26.69C122.514 27.428 124.242 28.562 125.106 29.426L124.044 30.29C123.234 29.444 121.524 28.238 120.102 27.464ZM128.742 24.71H129.012L129.264 24.638L130.146 25.124C127.878 30.38 122.262 32.63 116.376 33.494C116.286 33.116 116.016 32.558 115.8 32.252C121.362 31.586 126.798 29.444 128.742 24.908V24.71ZM122.892 24.71H129.102V25.862H122.892V24.71ZM124.35 23.018L125.844 23.36C124.026 25.484 121.182 27.446 117.24 28.832C117.078 28.526 116.682 28.04 116.394 27.788C120.21 26.6 122.946 24.728 124.35 23.018Z" fill="#FEFEFB"/>
</svg>
