<svg width="1443" height="1364" viewBox="0 0 1443 1364" fill="none" xmlns="http://www.w3.org/2000/svg">
<ellipse opacity="0.64" cx="721.148" cy="681.752" rx="422.5" ry="584.5" transform="rotate(-54.9016 721.148 681.752)" fill="#DAB488"/>
<ellipse opacity="0.64" cx="721.148" cy="681.752" rx="422.5" ry="584.5" transform="rotate(-54.9016 721.148 681.752)" fill="#DAB488"/>
<path opacity="0.64" d="M986.23 579.347C995.093 601.379 995.425 621.997 986.971 625.398C978.517 628.799 964.478 613.696 955.614 591.664C946.751 569.632 946.419 549.014 954.873 545.613C963.327 542.211 977.366 557.315 986.23 579.347Z" fill="#FEFEFB"/>
<path opacity="0.64" d="M1029.51 791.2C1031.45 811.889 1024.47 829.462 1013.93 830.449C1003.38 831.436 993.266 815.465 991.329 794.775C989.391 774.086 996.368 756.514 1006.91 755.526C1017.45 754.539 1027.57 770.511 1029.51 791.2Z" fill="#FEFEFB"/>
<path opacity="0.64" d="M960.903 988.345C950.717 1005.93 933.093 1014.77 921.54 1008.07C909.987 1001.38 908.88 981.702 919.066 964.114C929.253 946.526 946.876 937.692 958.429 944.384C969.982 951.075 971.09 970.757 960.903 988.345Z" fill="#FEFEFB"/>
<path opacity="0.53" d="M928.989 786.43C919.123 872.28 872.17 937.398 824.115 931.876C776.06 926.353 745.101 852.282 754.966 766.432C764.832 680.583 811.785 615.464 859.84 620.987C907.895 626.509 938.854 700.58 928.989 786.43Z" fill="#FEFEFB"/>
</svg>
