<svg width="183" height="171" viewBox="0 0 183 171" fill="none" xmlns="http://www.w3.org/2000/svg">
<g clip-path="url(#clip0_291_1305)">
<path d="M77.0886 48.5648C77.8931 48.5009 79.5497 48.2107 79.0016 49.062C78.5468 49.7684 77.4744 49.4156 77.4341 48.9083" stroke="white" stroke-width="3" stroke-linecap="round"/>
<path d="M95.8325 38.9062L95.7347 41.4716" stroke="white" stroke-width="2" stroke-linecap="round"/>
<path d="M64.6509 55.7318C50.7558 58.7726 29.7065 101.179 55.3458 100.379C48.7027 113.821 52.7859 132.867 66.547 139.981C80.4011 144.928 106.699 142.736 117.967 137.435C137.834 127.517 135.176 102.185 125.456 93.5739C130.461 93.781 136.824 90.6784 137.846 87.3687C140.01 80.3612 129.908 60.2339 116.525 53.5484C110.64 51.862 115.506 40.7153 126.208 27.5968" stroke="white" stroke-width="2" stroke-linecap="round"/>
<path d="M59.7961 76.0001C59.7961 76.0001 56.7986 86.4501 56.7734 97.815" stroke="white" stroke-width="2" stroke-linecap="round"/>
<path d="M60.1269 74.9777C61.1426 69.1655 65.2816 58.4443 68.0229 54.7405C71.4999 52.2355 74.0263 58.5332 75.6228 62.6798C82.4475 60.8597 89.4235 60.9446 95.2225 62.1652" stroke="white" stroke-width="2" stroke-linecap="round"/>
<path d="M96.1815 61.6096C99.4923 60.7829 104.062 51.9635 105.669 53.5271C108.591 56.3705 110.251 61.6197 111.211 66.6173C114.176 70.8918 120.406 81.7849 121.601 91.1612" stroke="white" stroke-width="2" stroke-linecap="round"/>
<path d="M121.82 56.0294C122.342 55.9879 146.783 55.0185 129.917 27.3019" stroke="white" stroke-width="2" stroke-linecap="round"/>
<path d="M77.9122 71.5604C79.4075 71.4416 81.0211 71.2334 82.9756 72.16" stroke="white" stroke-linecap="round"/>
<path d="M100.76 71.1901C99.2196 71.1676 97.5525 71.0483 95.6086 72.3035" stroke="white" stroke-linecap="round"/>
<path d="M77.4978 28.4564C73.1819 41.8402 64.6742 43.82 65.6005 55.4833" stroke="white" stroke-width="2" stroke-linecap="round"/>
<path d="M63.9685 50.5971C41.3171 40.8351 62.0545 33.9378 64.2066 32.0802C71.693 25.6182 77.1045 15.959 91.9362 12.5359C108.707 9.46951 126.106 14.6777 129.537 26.8909" stroke="white" stroke-width="2" stroke-linecap="round"/>
<path d="M53.5264 42.3986C50.1821 40.4907 44.0251 35.3287 46.1516 29.9434" stroke="white" stroke-width="2" stroke-linecap="round"/>
<path d="M43.2085 26.1645C42.3809 28.7381 42.0028 31.276 44.0001 36.1331" stroke="white" stroke-width="2" stroke-linecap="round"/>
<path d="M39.8547 34.4556C40.4009 38.3243 42.336 45.8481 45.7075 44.9935" stroke="white" stroke-width="2" stroke-linecap="round"/>
<path d="M77.0595 98.7114C82.6649 96.5367 101.028 93.3268 108.959 96.1777" stroke="white" stroke-width="2" stroke-linecap="round"/>
<path d="M27.6997 81.7668C39.8964 80.798 26.8783 129.974 15.4468 127.483C8.84495 126.045 8.42931 113.174 33.3855 126.059C40.8884 129.932 46.5702 128.225 53.4768 124.463" stroke="white" stroke-width="2" stroke-linecap="round"/>
<path d="M82.0335 121.819C84.0844 115.218 79.4721 110.835 75.7715 111.129C74.0656 111.206 69.702 113.095 69.1672 118.394C68.7133 122.891 72.2757 123.782 82.0335 121.819Z" stroke="white" stroke-width="2" stroke-linecap="round"/>
<path d="M104.69 120.019C101.623 113.824 105.486 108.769 109.186 108.475C110.883 108.282 115.49 109.458 116.854 114.606C118.013 118.975 114.636 120.417 104.69 120.019Z" stroke="white" stroke-width="2" stroke-linecap="round"/>
<path d="M89.1353 73.8623L90.4181 73.906" stroke="white" stroke-width="1.5" stroke-linecap="round"/>
<path d="M89.7383 74.9268L89.6294 76.3137M89.6294 76.3137C88.0749 77.3713 83.7734 77.8076 83.012 76.2594M89.6294 76.3137C91.274 77.6225 93.9441 77.5828 94.6014 76.239" stroke="white" stroke-linecap="round"/>
<path d="M77.7737 50.5037C77.2417 51.9778 77.8142 53.0236 77.365 53.5293M73.4948 53.8368C73.5976 55.1311 76.1571 54.8892 77.365 53.5293M77.365 53.5293C79.0139 55.2213 83.4426 56.4969 84.4603 52.9657" stroke="white" stroke-linecap="round"/>
<path d="M80.2639 36.2798C80.1892 37.2883 80.126 38.1417 80.0743 38.8399" stroke="white" stroke-width="2" stroke-linecap="round"/>
<path d="M46.9443 47.9365C47.2188 51.3923 49.404 58.6955 55.9486 60.2622" stroke="white" stroke-width="2" stroke-linecap="round"/>
<path d="M68.1017 74.3445L57.8164 71.1489" stroke="white" stroke-width="2" stroke-linecap="round"/>
<path d="M110.049 72.0157L118.783 68.3125" stroke="white" stroke-width="2" stroke-linecap="round"/>
<path d="M114.433 76.6832L123.167 72.98" stroke="white" stroke-width="2" stroke-linecap="round"/>
<path d="M63.5135 79.7246L53.3074 77.5259" stroke="white" stroke-width="2" stroke-linecap="round"/>
<path d="M100.162 138.896C97.4277 128.838 90.9815 135.386 90.2936 136.469C88.574 139.174 87.3085 142.486 95.2365 141.856C106.132 140.99 88.5585 163.678 84.8158 156.812C81.7959 151.272 116.727 136.296 118.819 146.405C121.415 158.943 138.297 123.665 150.156 134.925" stroke="white" stroke-width="2" stroke-linecap="round"/>
</g>
<defs>
<clipPath id="clip0_291_1305">
<rect width="171.074" height="157" fill="white" transform="translate(0 13.5459) rotate(-4.54156)"/>
</clipPath>
</defs>
</svg>
