<svg width="153" height="52" viewBox="0 0 153 52" fill="none" xmlns="http://www.w3.org/2000/svg">
<rect width="153" height="52" rx="26" fill="#52A038"/>
<ellipse cx="25.5" cy="26" rx="14.5" ry="14" fill="white"/>
<path d="M34 26L24 20.2265V31.7735L34 26ZM18 27H25V25H18V27Z" fill="#52A038"/>
<path d="M52.872 17.852H68.55V19.076H52.872V17.852ZM60.126 18.374H61.53V25.358C61.53 28.832 60.576 31.928 53.358 33.458C53.214 33.17 52.836 32.594 52.548 32.27C59.568 30.974 60.126 28.328 60.126 25.34V18.374ZM55.806 24.602V26.438H66.066V24.602H55.806ZM55.806 21.722V23.522H66.066V21.722H55.806ZM54.528 20.588H67.434V27.572H54.528V20.588ZM56.256 27.716C58.542 31.28 62.646 31.892 69.144 32.054C68.91 32.378 68.64 32.954 68.568 33.386C61.944 33.116 57.516 32.27 55.104 28.184L56.256 27.716ZM76.758 20.858L77.658 20.066C79.008 20.696 80.664 21.704 81.474 22.46L80.52 23.342C79.746 22.586 78.108 21.524 76.758 20.858ZM85.074 18.41H85.344L85.578 18.338L86.46 18.878C84.12 23.072 78.792 25.592 74.04 26.636C73.914 26.294 73.644 25.736 73.392 25.448C77.928 24.602 83.112 22.172 85.074 18.626V18.41ZM79.062 18.41H85.416V19.544H79.062V18.41ZM80.394 16.862L81.906 17.186C80.25 19.094 77.802 20.876 74.454 22.208C74.256 21.884 73.842 21.434 73.536 21.2C76.776 20.066 79.152 18.374 80.394 16.862ZM79.062 27.464L80.052 26.69C81.474 27.428 83.202 28.562 84.066 29.426L83.004 30.29C82.194 29.444 80.484 28.238 79.062 27.464ZM87.702 24.71H87.972L88.224 24.638L89.106 25.124C86.838 30.38 81.222 32.63 75.336 33.494C75.246 33.116 74.976 32.558 74.76 32.252C80.322 31.586 85.758 29.444 87.702 24.908V24.71ZM81.852 24.71H88.062V25.862H81.852V24.71ZM83.31 23.018L84.804 23.36C82.986 25.484 80.142 27.446 76.2 28.832C76.038 28.526 75.642 28.04 75.354 27.788C79.17 26.6 81.906 24.728 83.31 23.018ZM100.446 25.214H108.15V26.402H100.446V25.214ZM100.41 28.346H108.15V29.516H100.41V28.346ZM108.276 17.384L109.59 17.906C108.942 19.094 108.168 20.408 107.52 21.308L106.386 20.822C107.016 19.904 107.844 18.446 108.276 17.384ZM99.078 17.996L100.212 17.492C100.986 18.5 101.796 19.886 102.102 20.804L100.896 21.398C100.608 20.462 99.834 19.058 99.078 17.996ZM99.582 22.028H108.222V23.288H100.914V33.44H99.582V22.028ZM107.556 22.028H108.87V31.748C108.87 32.504 108.708 32.9 108.168 33.134C107.628 33.35 106.728 33.35 105.36 33.35C105.288 32.99 105.09 32.432 104.91 32.054C105.954 32.09 106.908 32.09 107.178 32.09C107.466 32.072 107.556 31.982 107.556 31.748V22.028ZM103.614 16.88H104.964V22.82H103.614V16.88ZM94.29 18.014L95.082 17.078C96.198 17.636 97.548 18.5 98.214 19.166L97.386 20.21C96.756 19.544 95.406 18.608 94.29 18.014ZM93.444 22.82L94.218 21.866C95.334 22.406 96.738 23.27 97.44 23.918L96.63 24.98C95.946 24.332 94.578 23.414 93.444 22.82ZM94.002 32.396C94.884 30.992 96.126 28.616 97.062 26.546L98.07 27.356C97.242 29.282 96.126 31.55 95.172 33.26L94.002 32.396ZM118.662 28.598H119.994V31.568C119.994 32.036 120.156 32.126 121.128 32.126C121.56 32.126 123.828 32.126 124.422 32.126C125.196 32.126 125.322 31.91 125.394 30.38C125.7 30.596 126.258 30.794 126.618 30.866C126.438 32.864 126.042 33.35 124.548 33.35C124.134 33.35 121.416 33.35 121.02 33.35C119.13 33.35 118.662 32.972 118.662 31.586V28.598ZM120.516 27.968L121.506 27.266C122.568 27.968 123.756 29.012 124.296 29.822L123.234 30.578C122.73 29.786 121.56 28.688 120.516 27.968ZM126.33 28.94L127.41 28.274C128.706 29.372 130.128 30.938 130.704 32.09L129.552 32.846C128.994 31.712 127.644 30.092 126.33 28.94ZM116.196 28.454L117.384 28.886C116.934 30.29 116.232 31.874 115.044 32.846L113.946 32.072C115.044 31.208 115.8 29.768 116.196 28.454ZM118.158 21.938V23.432H126.582V21.938H118.158ZM118.158 24.476V25.97H126.582V24.476H118.158ZM118.158 19.436V20.912H126.582V19.436H118.158ZM116.862 18.356H127.932V27.068H116.862V18.356ZM121.65 16.7L123.216 16.97C122.856 17.744 122.424 18.464 122.118 18.986L120.912 18.698C121.182 18.122 121.488 17.276 121.65 16.7Z" fill="#FEFEFB"/>
</svg>
