<svg width="286" height="275" viewBox="0 0 286 275" fill="none" xmlns="http://www.w3.org/2000/svg">
<path d="M92.7811 121.346C92.7811 121.346 85.3354 133.465 84.9052 147.977C84.494 162.493 85.3818 176.18 85.3818 176.18C85.3818 176.18 80.1228 203.671 78.672 206.442C77.2212 209.213 70.2415 211.597 69.0522 216.961C67.8629 222.325 68.3163 229.53 77.8454 233.339C87.3746 237.148 96.1172 235.614 100.309 232.333C106.359 227.588 106.34 223.273 107.289 218.993C108.238 214.714 113.965 190.141 115.863 186.61C117.756 183.099 119.846 181.307 122.729 182.226C125.611 183.144 127.811 188.401 126.174 197.039C124.542 205.657 121.48 220.723 120.561 223.612C119.642 226.502 114.768 235.818 116.023 240.307C117.278 244.796 126.111 250.845 133.681 252.085C143.592 253.723 150.842 248.865 152.44 244.171C154.039 239.476 153.269 227.771 153.982 224.557C154.694 221.342 163.3 200.222 164.662 199.107C166.02 198.011 169.221 199.02 177.093 197.373C184.256 195.868 188.383 193.69 188.383 193.69C188.383 193.69 184.336 212.748 183.598 214.82C182.856 216.91 174.957 222.183 174.893 227.497C174.83 232.811 180.435 237.167 185.901 238.918C195.135 241.903 205.944 236.617 209.761 230.718C213.596 224.824 214.294 216.557 214.712 212.16C215.129 207.762 218.457 192.755 219.878 188.859C221.299 184.964 222.712 182.723 223.522 180.687C224.825 177.324 225.552 173.415 225.552 173.415C225.552 173.415 234.776 175.46 241.043 173.058C247.31 170.656 254.456 165.635 258.72 158.438C262.889 151.4 262.796 148.945 260.711 148.203C258.625 147.461 246.028 158.837 237.774 157.446C224.665 155.238 229.042 141.601 221.023 130.982C211.991 119.002 194.892 113.953 194.892 113.953C194.892 113.953 200.383 103.377 202.264 95.0733C210.444 58.8114 195.541 42.5958 195.541 42.5958C195.541 42.5958 177.852 22.0704 153.57 17.8041C129.289 13.5378 107.411 28.7824 107.411 28.7824L81.2107 84.357C81.2107 84.357 82.0584 96.3388 85.5968 105.704C89.3165 115.509 92.7811 121.346 92.7811 121.346Z" fill="#FFD2B1"/>
<path d="M99.091 13.43C79.3947 9.47914 65.3367 23.8464 62.7713 33.9823C61.2727 39.9341 49.2522 82.9421 73.1915 89.1817C82.7929 91.6872 92.4763 82.079 98.948 70.1926C107.1 55.2096 110.449 39.1219 111.926 34.9693C114.291 28.3374 116.822 23.6454 116.822 23.6454C116.822 23.6454 115.838 16.7864 99.091 13.43ZM205.522 30.0506C226.678 35.574 231.863 46.6155 232.713 52.5528C233.658 59.0464 230.909 80.8572 224.412 94.3833C219.122 105.422 213.719 110.428 204.201 107.902C195.49 105.594 193.841 91.9662 191.023 73.3019C188.306 55.2549 186.7 39.278 186.34 36.958C185.899 33.9264 183.89 32.232 183.89 32.232C183.89 32.232 189.761 25.9216 205.522 30.0506Z" fill="#865B52"/>
<path d="M171.526 67.9224C160.861 66.2553 153.227 76.8777 152.844 89.1675C152.429 102.407 159.398 110.269 170.157 111.239C181.925 112.314 188.292 99.9764 189.03 89.7579C189.683 80.4572 186.622 70.2734 171.526 67.9224Z" fill="#D27856"/>
<path d="M179.193 91.9964C177.962 97.549 173.87 101.51 169.04 100.299C162.484 98.646 162.066 92.3886 163.295 87.4738C164.728 81.7266 168.776 79.7513 173.662 80.9744C178.028 82.0421 180.424 86.4438 179.193 91.9964ZM123.021 82.7538C121.739 88.5346 117.606 92.6854 112.78 91.4559C106.224 89.8027 105.861 83.2981 107.136 78.1742C108.623 72.1797 113.296 70.5223 117.089 71.6628C121.385 72.9544 124.303 76.973 123.021 82.7538ZM141.141 120.648C141.141 120.648 152.978 122.015 154.32 113.455C155.659 104.913 147.935 102.622 141.779 101.397C135.624 100.172 126.138 101.44 125.492 108.739C124.846 116.037 134.622 119.182 134.622 119.182C134.622 119.182 133.44 124.426 129.914 124.044C126.101 123.617 122.047 116.673 120.915 114.886C119.784 113.099 117.397 113.129 116.337 114.15C115.278 115.172 115.213 117.971 116.976 120.756C118.739 123.541 122.778 130.462 128.228 131.111C133.678 131.761 134.434 128.976 136.581 129.313C138.747 129.653 137.903 132.838 143.245 133.882C147.01 134.617 156.021 129.673 157.644 128.795C161.301 126.793 162.69 124.288 161.75 122.264C160.81 120.24 156.525 121.944 154.192 122.983C151.863 124.002 147.862 126.746 144.597 126.621C139.172 126.396 141.141 120.648 141.141 120.648Z" fill="#060401"/>
<path d="M191.31 118.56C191.31 118.56 187.559 123.569 184.47 127.564C180.743 132.378 176.07 136.262 176.07 136.262C176.07 136.262 173.904 165.462 198.871 168.437C207.806 169.499 215.959 164.066 218.206 156.884C222.005 144.766 218.631 137.958 212.654 130.713C202.963 119.004 191.31 118.56 191.31 118.56ZM164.585 159.055C159.364 162.098 160.022 170.144 165.573 172.235C171.129 174.306 175.278 170.186 175.65 166.449C176.258 160.664 170.533 155.594 164.585 159.055ZM109.642 139.073C109.642 139.073 103.479 148.787 108.625 163.808C110.821 170.195 117.782 175.058 123.24 176.049C129 177.106 134.609 176.249 140.271 171.665C149.294 164.365 150.56 149.166 150.56 149.166C150.56 149.166 138.351 151.319 128.172 148.702C117.331 145.938 109.642 139.073 109.642 139.073ZM77.7766 216.809C75.1856 215.334 73.1056 219.433 72.3035 222.155C71.5014 224.878 70.7257 228.466 73.0056 229.911C75.2855 231.357 75.9728 225.929 76.5887 224.226C77.791 220.952 80.5106 218.355 77.7766 216.809ZM88.3344 220.85C86.6863 220.404 84.5506 221.711 83.2519 226.583C82.1687 230.663 81.5866 234.094 83.8526 234.796C86.9006 235.732 86.9179 231.536 87.8236 228.257C88.3178 226.386 91.7588 221.789 88.3344 220.85ZM129.509 235.599C126.842 235.008 126.09 238.041 125.358 241.339C124.623 244.656 123.033 248.604 125.942 249.629C129.478 250.873 129.868 245.799 130.481 243.035C130.995 240.629 132.423 236.245 129.509 235.599ZM141.716 237.666C139.481 237.63 139.015 240.627 138.296 244.228C137.596 247.832 136.225 251.509 139.301 251.871C141.933 252.174 142.697 247.923 143.317 244.681C143.858 241.881 145.164 237.69 141.716 237.666ZM183.458 222.461C181.703 221.692 179.275 222.793 177.82 226.851C176.59 230.338 176.063 233.521 179.014 234.896C180.523 235.61 181.72 231.555 182.451 228.617C183.112 226.084 185.665 223.43 183.458 222.461ZM193.004 226.857C191.308 226.181 189.345 226.886 187.906 231.227C187.067 233.761 185.089 238.203 188.249 239.083C190.702 239.747 191.422 235.607 192.122 233.522C193.23 230.227 195.789 227.995 193.004 226.857Z" fill="#D27856"/>
<path d="M72.7861 206.555C72.7861 206.555 66.0239 205.964 65.751 201.583L61.9072 189.239L78.623 172.055C78.623 172.055 90.8781 171.793 91.5781 171.793C92.2899 171.793 95.5761 189.239 95.5761 189.239L89.6918 199.917L72.7861 206.555Z" fill="#FFDAB4"/>
<path d="M72.893 127.752C73.2604 131.37 73.9597 134.529 76.2472 137.189C78.0842 139.313 80.0043 141.121 81.6992 143.389C86.5823 149.929 94.8077 152.184 99.8567 159.039C103.223 163.613 105.51 169.223 106.672 174.911C107.976 181.307 108.781 188.372 107.17 194.663C104.953 203.288 98.1382 204.336 91.015 205.529C87.7438 206.079 84.4133 206.394 81.0947 206.499C78.4517 206.577 75.3938 206.944 72.7508 206.538C70.4396 206.171 70.001 202.711 70.6292 200.679C71.2929 198.49 73.2841 197.665 75.1449 197.271C76.0575 197.075 77.0175 197.363 77.942 197.193C79.6606 196.891 80.3836 195.646 80.4191 193.746C80.4547 191.151 81.2606 188.988 82.3392 186.72C82.8251 185.698 83.6429 184.794 84.4252 184.02C85.2193 183.208 86.5941 182.094 85.8356 180.678C84.5318 178.214 80.5732 180.481 79.2339 181.543C77.1598 183.168 75.6901 185.633 75.0501 188.346C74.1375 192.107 73.4382 192.356 70.2618 193.693C68.3891 194.493 66.6587 195.817 65.9476 197.874C65.0824 200.43 66.5283 203.445 65.035 205.673C63.8616 207.456 61.586 208.439 59.5 208.347C54.1191 208.085 50.516 206.63 51.642 200.574C52.3531 196.773 52.1279 192.605 52.3413 188.66C52.4124 187.179 52.5427 184.912 51.2034 183.876C50.6819 183.457 49.959 183.391 49.3545 183.431C48.9397 183.444 47.8967 183.378 47.5056 183.522C46.3559 183.929 46.6285 185.973 46.6403 187.048C46.6522 189.119 46.6166 191.229 46.5692 193.274C46.5218 195.699 46.7589 198.097 46.7826 200.496C46.7944 202.069 46.9248 204.008 45.7514 205.123C44.4121 206.433 42.3617 206.722 40.5365 206.787C38.3438 206.879 35.843 206.695 34.0177 205.28C30.2843 202.37 31.5525 195.699 31.8962 191.806C32.1214 189.276 31.9555 186.642 31.8962 184.047C31.8488 181.714 31.7895 179.367 31.7421 177.008C31.7184 176.038 31.5999 174.99 31.6473 173.994C31.8251 171.241 31.3154 168.423 31.2443 165.566C31.1258 160.323 30.8769 154.989 30.8769 149.654C30.8769 147.373 31.2325 144.87 31.8251 142.707C32.1451 141.554 32.4888 140.007 33.0459 138.998C33.9229 137.386 35.44 135.944 36.7082 134.686C38.3438 133.074 40.2876 132.261 42.1602 131.016C44.5899 129.391 47.1263 127.857 49.7575 126.612C54.3798 124.436 59.3222 122.575 64.4898 122.365C66.3032 122.287 67.6662 121.972 69.4203 121.527C71.1863 121.081 72.0633 122.392 72.3833 124.227C72.6559 125.367 72.7745 126.56 72.893 127.752ZM54.048 90.0043C54.048 90.0043 51.5235 86.5834 45.6448 77.1858C42.018 71.3663 30.5806 54.9826 24.7967 58.3773C15.872 63.5939 16.8676 100.555 16.8676 100.555L54.048 90.0043ZM57.7933 90.45C57.7933 90.45 60.9104 87.6975 68.4247 79.8334C73.0826 74.9838 87.3408 61.6016 92.3661 66.2284C100.117 73.3847 92.1884 109.311 92.1884 109.311L57.7933 90.45Z" fill="#F79329"/>
<path d="M96.6399 125.462C97.0314 113.996 92.215 101.569 83.7329 93.2224C76.876 86.456 66.6975 82.2302 56.4597 81.0586C46.2219 79.8474 35.4858 81.6378 27.5138 86.6534C17.6437 92.867 10.6208 103.899 8.84135 115.22C7.1568 125.962 8.10584 137.086 16.4693 145.669C21.1078 150.422 27.0986 153.989 33.4098 156.267C35.8061 157.136 42.0224 159.229 48.6538 160.005C55.309 160.782 62.3794 160.242 64.8943 159.94C71.4902 159.163 78.0268 157.07 83.4482 153.502C93.2589 147.025 96.2722 136.362 96.6399 125.462" fill="#F79329"/>
<path d="M38.0678 121.048C37.664 125.256 34.5876 128.35 31.2023 127.957C27.8171 127.563 25.3821 123.84 25.786 119.619C26.1898 115.398 29.2662 112.304 32.6515 112.698C36.0367 113.104 38.4598 116.827 38.0678 121.048ZM66.6344 124.365C66.2306 128.573 68.6537 132.309 72.0389 132.702C75.4241 133.096 78.5005 130.002 78.9044 125.794C79.3082 121.572 76.8851 117.836 73.4999 117.443C70.1028 117.063 67.0383 120.144 66.6344 124.365ZM51.0148 142.115C50.9555 142.115 50.8842 142.115 50.8248 142.102C49.8152 141.984 49.0787 140.987 49.1856 139.86L49.8983 132.375C50.0052 131.26 50.9198 130.5 51.9294 130.565C52.9391 130.683 53.6755 131.68 53.5686 132.807L52.8559 140.279C52.749 141.328 51.9532 142.115 51.0148 142.115Z" fill="#2F2F2F"/>
<path d="M45.6342 147.004C43.7693 146.991 41.8926 146.362 40.5266 145.209C39.4457 144.291 37.7234 141.512 39.4933 140.45C39.7783 140.279 40.099 140.188 40.4197 140.148C40.9305 140.07 41.3462 140.214 41.7738 140.568C42.4628 141.132 43.0448 142.141 43.9 142.324C46.5725 142.927 48.8769 141.42 49.5183 138.457C49.6846 137.658 49.744 137.277 50.5992 137.186C52.6778 136.976 53.1767 139.86 52.6066 141.577C52.0958 143.111 51.4306 144.763 50.1359 145.68C48.8056 146.611 47.2021 147.018 45.6342 147.004Z" fill="#2F2F2F"/>
<path d="M55.3621 147.974C57.2032 148.342 59.1512 148.092 60.6953 147.24C61.9069 146.546 64.0687 144.173 62.5008 142.77C61.5149 141.892 60.6478 142.246 59.6857 142.927C57.2388 144.671 53.8892 143.439 53.0697 140.292C52.8915 139.571 53.1409 138.431 52.844 137.789C52.7014 137.487 52.4758 137.553 52.1432 137.421C51.9175 137.33 51.775 137.225 51.5255 137.212C50.3734 137.133 49.7082 138.496 49.53 139.571C49.435 140.148 49.3281 140.633 49.4112 141.21C49.6607 142.836 50.0408 144.579 51.1692 145.746C52.3095 146.952 53.818 147.66 55.3621 147.974Z" fill="#2F2F2F"/>
<path d="M45.4085 132.86C45.3728 134.262 46.0974 135.809 47.3208 136.858C48.3186 137.71 49.7915 138.261 51.2525 138.418C52.7134 138.588 54.2576 138.392 55.386 137.802C56.7876 137.055 57.7854 135.717 58.011 134.328C58.2367 133.017 58.0823 131.627 56.8589 130.552C56.1937 129.949 55.3266 129.504 54.412 129.215C54.0794 129.097 53.1767 128.822 52.2265 128.717C51.2643 128.599 50.2547 128.651 49.8984 128.691C48.96 128.769 48.0216 129.019 47.2496 129.438C45.8598 130.211 45.4441 131.509 45.4085 132.86Z" fill="#2F2F2F"/>
<path d="M99.7253 187.332C101.176 186.268 102.697 186.741 104.314 186.951C111.281 187.845 119.175 194.599 119.46 202.641C119.805 212.969 111.495 220.433 103.22 222.89C97.1931 224.677 90.6664 224.677 84.4607 224.401C81.7502 224.283 76.8522 224.782 74.4627 223.1C73.6067 222.509 72.8577 221.274 72.4654 220.262C71.0269 216.569 73.9277 213.994 77.0305 214.007C79.2893 214.02 81.5481 214.06 83.8187 214.033C88.7643 213.994 93.7336 214.401 98.6197 213.324C103.066 212.351 109.581 208.501 109.307 202.509C109.105 198.107 104.683 197.24 101.497 196.715C100.688 196.583 99.8917 196.294 98.9644 196.268C97.1455 196.215 97.2287 194.323 97.3595 192.851C97.5497 190.762 97.8469 189.014 99.4281 187.582C99.4875 187.503 99.6064 187.411 99.7253 187.332ZM11.8827 122.249C11.7638 122.249 11.6449 122.235 11.526 122.209L1.75386 120.094C0.755243 119.883 0.101388 118.806 0.303488 117.702C0.493701 116.598 1.49232 115.862 2.46716 116.099L12.2393 118.228C13.2379 118.438 13.8918 119.515 13.6897 120.606C13.5114 121.565 12.7386 122.249 11.8827 122.249ZM1.83708 130.527C0.92168 130.527 0.137053 129.778 0.0181697 128.753C-0.12449 127.636 0.588808 126.624 1.59931 126.467L11.4785 125.034C12.4652 124.877 13.4044 125.665 13.547 126.782C13.6778 127.899 12.9645 128.924 11.9659 129.068L2.08673 130.501C2.00351 130.527 1.93218 130.527 1.83708 130.527ZM4.74971 139.725C3.95319 139.725 3.21612 139.147 2.97835 138.24C2.69304 137.163 3.26367 136.046 4.2504 135.731L13.8205 132.708C14.7953 132.406 15.8177 133.024 16.103 134.114C16.3765 135.192 15.8177 136.322 14.831 136.624L5.26091 139.646C5.08258 139.699 4.91615 139.725 4.74971 139.725ZM92.6755 130.12C91.7482 130.12 90.9517 129.344 90.8447 128.306C90.7913 127.77 90.9329 127.232 91.2383 126.81C91.5437 126.389 91.9879 126.119 92.4734 126.059L102.376 124.837C103.363 124.745 104.302 125.521 104.409 126.637C104.528 127.768 103.791 128.766 102.781 128.884L92.8776 130.107C92.8063 130.107 92.735 130.12 92.6755 130.12ZM102.043 139.305C101.913 139.305 101.782 139.292 101.639 139.252L91.9147 136.9C91.4394 136.783 91.0252 136.464 90.7624 136.011C90.4996 135.558 90.4096 135.008 90.5118 134.482C90.7377 133.392 91.7126 132.695 92.6993 132.932L102.436 135.284C103.423 135.52 104.064 136.611 103.839 137.702C103.66 138.648 102.888 139.305 102.043 139.305ZM98.4651 148.188C98.2511 148.188 98.0252 148.148 97.8113 148.056L88.5027 144.167C87.5517 143.772 87.0642 142.59 87.4328 141.539C87.7894 140.487 88.8594 139.962 89.8104 140.356L99.1309 144.245C100.082 144.653 100.557 145.822 100.201 146.873C99.9155 147.688 99.2141 148.188 98.4651 148.188Z" fill="#F79329"/>
<path d="M26.3025 73.7015C25.4371 76.197 23.6946 83.3817 24.7851 88.491C25.1052 90.0147 26.8596 90.6976 28.1043 90.0409C30.7004 88.6618 34.7546 86.2319 36.2719 85.3913C38.8561 83.9859 39.7452 82.239 38.3464 80.098C36.5683 77.366 32.1348 71.705 29.515 71.1534C28.0213 70.8381 26.8715 72.0859 26.3025 73.7015ZM87.4704 80.6103C87.9564 83.2372 88.5729 90.632 86.7236 95.4918C86.1783 96.9235 84.3409 97.2781 83.2147 96.3981C80.8676 94.5592 77.252 91.4069 75.8651 90.3036C73.5417 88.4385 72.9134 86.5471 74.6204 84.6951C76.7779 82.3309 82.0056 77.563 84.6728 77.5105C86.202 77.4711 87.1622 78.9159 87.4704 80.6103Z" fill="#FCD4B5"/>
</svg>
