<svg width="153" height="52" viewBox="0 0 153 52" fill="none" xmlns="http://www.w3.org/2000/svg">
<rect width="153" height="52" rx="26" fill="#FAC60E"/>
<ellipse cx="25.5" cy="26" rx="14.5" ry="14" fill="white"/>
<path d="M34 26L24 20.2265V31.7735L34 26ZM18 27H25V25H18V27Z" fill="#FFC700"/>
<path d="M64.32 19.598H77.766V20.966H64.32V19.598ZM62.916 24.35H79.098V25.7H62.916V24.35ZM70.206 16.88H71.628V25.106H70.206V16.88ZM68.748 25.232L70.332 25.646C69.396 27.77 68.154 30.344 67.11 32.018L65.85 31.586C66.858 29.876 68.1 27.158 68.748 25.232ZM63.564 31.262C66.948 31.172 72.276 30.938 77.208 30.704L77.154 32.018C72.312 32.288 67.146 32.558 63.744 32.702L63.564 31.262ZM73.482 27.752L74.724 27.176C76.344 28.94 78.09 31.298 78.918 32.882L77.586 33.602C76.812 32 75.048 29.534 73.482 27.752ZM93.66 18.14H94.902C94.524 21.056 93.642 23.972 90.492 25.538C90.348 25.25 89.97 24.8 89.682 24.584C92.616 23.234 93.354 20.606 93.66 18.14ZM90.348 20.714L91.014 19.778C92.886 20.408 95.136 21.524 96.324 22.352L95.676 23.414C94.47 22.532 92.22 21.344 90.348 20.714ZM97.908 17.654H99.186C99.186 17.654 99.186 18.05 99.168 18.23C98.988 22.478 98.808 24.08 98.358 24.602C98.07 24.944 97.764 25.07 97.278 25.124C96.846 25.16 96 25.142 95.154 25.106C95.136 24.728 95.01 24.206 94.812 23.882C95.64 23.954 96.396 23.954 96.684 23.954C96.972 23.972 97.134 23.918 97.26 23.774C97.584 23.396 97.764 21.956 97.908 17.888V17.654ZM92.382 27.248H93.642V31.586C93.642 32.036 93.714 32.108 94.218 32.108C94.452 32.108 95.622 32.108 95.91 32.108C96.396 32.108 96.468 31.856 96.522 30.056C96.774 30.272 97.314 30.452 97.674 30.56C97.53 32.756 97.188 33.314 96.054 33.314C95.766 33.314 94.344 33.314 94.056 33.314C92.688 33.314 92.382 32.936 92.382 31.604V27.248ZM90.672 27.86L91.77 28.13C91.572 29.732 91.194 31.478 90.24 32.486L89.232 31.82C90.096 30.938 90.492 29.354 90.672 27.86ZM92.688 25.592L93.48 24.8C94.668 25.43 96.054 26.402 96.72 27.158L95.874 28.076C95.226 27.32 93.858 26.276 92.688 25.592ZM96.882 27.986L97.998 27.536C98.97 28.85 99.78 30.614 100.05 31.838L98.844 32.342C98.61 31.118 97.818 29.3 96.882 27.986ZM90.51 17.654H98.466V18.824H90.51V17.654ZM83.994 22.334H89.106V23.414H83.994V22.334ZM84.066 17.528H89.034V18.608H84.066V17.528ZM83.994 24.746H89.106V25.826H83.994V24.746ZM83.184 19.886H89.61V21.002H83.184V19.886ZM84.588 27.176H89.106V32.432H84.588V31.298H87.936V28.292H84.588V27.176ZM83.976 27.176H85.128V33.26H83.976V27.176ZM105.036 18.734H118.95V19.796H105.036V18.734ZM106.026 20.822H117.96V21.83H106.026V20.822ZM104.028 22.874H119.976V23.918H104.028V22.874ZM108.132 27.248H115.692V28.076H108.132V27.248ZM111.3 19.238H112.686V23.396H111.3V19.238ZM111.336 24.368H112.632V25.97H111.336V24.368ZM107.484 17.276L108.654 16.844C109.194 17.384 109.716 18.158 109.968 18.68L108.708 19.202C108.51 18.662 107.988 17.852 107.484 17.276ZM115.188 16.862L116.61 17.222C116.142 17.924 115.62 18.626 115.188 19.094L114.054 18.734C114.45 18.212 114.918 17.384 115.188 16.862ZM115.098 23.162C116.142 24.71 118.248 26.078 120.372 26.672C120.102 26.942 119.706 27.41 119.508 27.734C117.348 26.996 115.188 25.376 114.018 23.558L115.098 23.162ZM112.182 29.39C113.586 31.082 116.592 32.036 120.066 32.324C119.796 32.594 119.472 33.116 119.31 33.476C115.71 33.026 112.686 31.82 111.12 29.678L112.182 29.39ZM108.276 25.376H116.646V29.984H108.276V29.066H115.296V26.294H108.276V25.376ZM107.394 25.376H108.726V32.45H107.394V25.376ZM105.306 32.09C107.286 31.946 110.382 31.712 113.37 31.46V32.558C110.526 32.828 107.556 33.098 105.468 33.296L105.306 32.09ZM117.78 29.624L118.788 30.254C117.726 30.92 116.34 31.55 115.242 31.964L114.468 31.406C115.512 30.956 116.952 30.182 117.78 29.624ZM108.87 23.162L110.112 23.54C108.852 25.448 106.638 26.996 104.532 27.968C104.352 27.716 103.884 27.23 103.578 26.978C105.702 26.15 107.754 24.8 108.87 23.162Z" fill="#FEFEFB"/>
</svg>
