<svg width="1412" height="1406" viewBox="0 0 1412 1406" fill="none" xmlns="http://www.w3.org/2000/svg">
<path opacity="0.5" d="M998.958 1003.6C1226.8 781.353 1280.23 466.61 1118.3 300.595C956.363 134.581 640.388 180.163 412.545 402.405C184.703 624.647 131.273 939.39 293.207 1105.4C455.14 1271.42 771.116 1225.84 998.958 1003.6Z" fill="#F8CE62"/>
<path opacity="0.39" d="M870.411 246.447C890.666 258.843 903.231 275.194 898.474 282.967C893.717 290.739 873.44 286.99 853.184 274.593C832.928 262.197 820.364 245.846 825.121 238.073C829.878 230.301 850.155 234.05 870.411 246.447Z" fill="#FEFEFB"/>
<path opacity="0.39" d="M1031.51 390.673C1045.41 406.123 1050.29 424.389 1042.42 431.47C1034.54 438.551 1016.89 431.766 1003 416.316C989.103 400.865 984.222 382.6 992.095 375.519C999.968 368.438 1017.62 375.222 1031.51 390.673Z" fill="#FEFEFB"/>
<path opacity="0.39" d="M1094.04 589.829C1096.35 610.022 1087.48 627.624 1074.21 629.144C1060.95 630.664 1048.32 615.527 1046 595.335C1043.69 575.142 1052.57 557.54 1065.83 556.02C1079.09 554.5 1091.72 569.637 1094.04 589.829Z" fill="#FEFEFB"/>
<path opacity="0.39" d="M947.985 446.801C991.274 521.591 992.428 601.864 950.563 626.095C908.699 650.326 839.669 609.34 796.38 534.549C753.092 459.759 751.938 379.486 793.802 355.255C835.667 331.024 904.697 372.011 947.985 446.801Z" fill="#FEFEFB"/>
</svg>
