<svg width="177" height="223" viewBox="0 0 177 223" fill="none" xmlns="http://www.w3.org/2000/svg">
<path d="M62.4844 130.786H72.8016C73.9641 130.786 74.8359 129.672 74.5453 128.606L65.3906 90.0983H50.8594L60.1109 128.945C60.4016 130.011 61.3703 130.786 62.4844 130.786ZM90.9656 130.786H80.6484C79.4859 130.786 78.6141 129.672 78.9047 128.606L88.0594 90.0983H102.591L93.3391 128.945C93.0484 130.011 92.0797 130.786 90.9656 130.786Z" fill="#D3883E"/>
<path d="M94.0172 0.876452C96.5844 0.295202 99.2969 -0.0438604 102.058 0.00457713C120.367 0.198327 135.383 15.1171 135.625 33.4265C135.695 38.3426 134.695 43.2151 132.693 47.7059C130.692 52.1967 127.737 56.1982 124.034 59.4325C125.264 62.8038 125.938 66.4415 125.938 70.239V92.2296C125.938 95.2811 125.308 98.3327 124.048 101.142L111.842 129.672C111.6 130.35 110.922 130.786 110.195 130.786H99.6359C98.3281 130.786 97.4563 129.43 98.0375 128.267L104.334 113.591C104.916 112.283 104.625 110.781 103.608 109.764L91.9344 98.0905C91.1594 97.3155 71.1111 85.7874 69.997 85.7874L53.3297 96.8796V128.945C53.3297 129.962 52.5063 130.786 51.4891 130.786H40.5906C39.5734 130.786 38.75 129.962 38.75 128.994V96.7827L29.1884 77.5143L19.4719 67.8171C14.3076 67.8171 9.35487 65.7656 5.70318 62.1139C2.05149 58.4622 0 53.5095 0 48.3452V47.2796C0 45.2452 1.64688 43.5983 3.68125 43.5983C4.89219 43.5983 5.95781 42.7265 6.2 41.5155C8.04063 32.0702 15.1609 22.9155 24.2188 20.8327V7.70614C24.2188 5.86552 26.4953 5.04208 27.7063 6.39833L43.7391 24.2524L42.47 28.9993L51.0483 33.8818C51.7845 35.4318 52.327 37.0447 52.7145 38.7546L49.5855 43.579L53.3297 48.4954V50.4765C53.3297 52.6561 55.6063 54.1093 57.5922 53.1405L58.1734 52.8596L63.332 54.768L67.7592 48.195L72.7483 45.7732L77.4661 47.2844L82.1888 41.2249C83.7872 40.5468 85.4486 40.0043 87.1439 39.6071L91.7794 45.3518L96.6328 38.8272C101.001 39.1274 105.258 40.3368 109.132 42.3779C113.005 44.4189 116.41 47.2467 119.127 50.6799C123.185 46.4796 125.586 40.9538 125.889 35.1218C126.616 21.2202 115.475 9.69208 101.719 9.69208C99.8781 9.69208 98.0375 9.88583 96.2938 10.3218C95.3191 10.537 94.302 10.448 93.3795 10.0669C92.457 9.68581 91.6737 9.03088 91.1352 8.19051C91.1206 8.17598 91.1109 8.1663 91.1109 8.14208C90.6846 7.50101 90.4204 6.76595 90.3411 6.00014C90.2618 5.23434 90.3697 4.46073 90.6556 3.74589C90.9416 3.03106 91.3969 2.39641 91.9825 1.89656C92.5681 1.39671 93.2663 1.04663 94.0172 0.876452Z" fill="#F3AD61"/>
<path d="M47.275 28.2436L43.6906 24.2233H38.75C36.0859 24.2233 33.9062 26.403 33.9062 29.0671C33.9062 31.7311 36.0859 33.9108 38.75 33.9108H51.087C50.1183 31.828 48.7766 29.939 47.275 28.2436ZM87.0422 39.6265C89.4641 39.0452 91.9344 38.7546 94.4531 38.7546C95.1797 38.7546 95.9547 38.803 96.7297 38.8515V55.1265C96.7297 57.7905 94.55 59.9702 91.8859 59.9702C89.2219 59.9702 87.0422 57.7905 87.0422 55.1265V39.6265ZM80.6484 41.903L72.5594 45.8265V59.1468C72.5594 61.8108 74.7391 63.9905 77.4031 63.9905C80.0672 63.9905 82.2469 61.8108 82.2469 59.1468V41.2249C81.7141 41.4186 81.1812 41.6608 80.6484 41.903ZM62.9688 68.0108C65.6328 68.0108 67.8125 65.8311 67.8125 63.1671V48.1515L58.125 52.8499V63.1671C58.125 65.8311 60.3047 68.0108 62.9688 68.0108ZM52.7 38.7546C53.0875 40.4499 53.2812 42.1936 53.2812 44.0343V48.4421H46.0156C43.3516 48.4421 41.1719 46.2624 41.1719 43.5983C41.1719 40.9343 43.3516 38.7546 46.0156 38.7546H52.7Z" fill="#D3883E"/>
<path d="M32.574 72.191C31.9471 70.8797 30.9614 69.7729 29.7312 68.9988C28.501 68.2246 27.0767 67.8149 25.6232 67.8171H19.4717V75.5186C19.4705 80.8242 21.4437 85.9403 25.0072 89.8709C28.5708 93.8016 33.4696 96.2654 38.7498 96.7827V82.7843L32.574 72.191ZM70.9123 83.0749H53.2811V96.8796H88.9311C90.0451 96.8796 91.1107 97.3155 91.8857 98.0905L84.6201 89.4686C81.2295 85.3999 76.192 83.0749 70.9123 83.0749Z" fill="#FFDEA7"/>
<path d="M19.4719 41.5979C19.4719 40.0479 20.552 38.8515 21.8453 38.8515C23.1822 38.8515 24.2188 40.1011 24.2188 41.5979V45.6957C24.2188 47.1972 23.1822 48.3936 21.8453 48.4421C20.5084 48.4421 19.4719 47.1924 19.4719 45.6957V41.5979ZM6.975 43.5983C8.1375 43.5983 8.76719 44.9061 8.08906 45.8265L1.21094 55.078C0.435938 52.9952 0 50.7186 0 48.3452V47.2796C0 45.2452 1.64688 43.5983 3.68125 43.5983H6.975Z" fill="#212121"/>
<g clip-path="url(#clip0_291_1518)">
<path d="M160.424 191.283C161.295 190.291 160.903 188.523 159.548 187.334C158.194 186.144 156.39 185.984 155.519 186.975C154.648 187.967 155.04 189.735 156.395 190.925C157.749 192.114 159.553 192.275 160.424 191.283Z" fill="#FEDD88"/>
<path d="M137.254 190.491C138.202 189.512 137.933 187.715 136.654 186.478C135.375 185.24 133.571 185.03 132.623 186.009C131.676 186.988 131.945 188.784 133.224 190.022C134.502 191.26 136.307 191.47 137.254 190.491Z" fill="#FEDD88"/>
<path d="M142.393 184.472C141.404 183.092 139.704 182.616 138.597 183.409C137.49 184.203 137.394 185.965 138.384 187.346C139.373 188.726 141.072 189.202 142.18 188.408C143.287 187.615 143.382 185.852 142.393 184.472Z" fill="#FEDD88"/>
<path d="M134.188 194.931C134.968 193.786 134.327 191.991 132.757 190.921C131.187 189.852 129.282 189.913 128.502 191.057C127.722 192.202 128.363 193.997 129.933 195.067C131.503 196.137 133.408 196.076 134.188 194.931Z" fill="#FEDD88"/>
<path d="M160.496 195.2C162.236 189.935 168.899 189.008 170.334 191.651C171.87 194.484 168.538 195.252 167.446 197.356C166.775 198.648 167.131 202.128 164.199 202.49C161.642 202.804 159.36 198.635 160.496 195.2ZM136.659 193.603C138.597 190.598 143.97 189.32 145.634 191.952C147.201 194.431 143.394 196.212 142.603 197.758C141.572 199.771 141.181 203.279 138.497 202.588C135.469 201.805 134.959 196.242 136.659 193.603Z" fill="#FEDD88"/>
<path d="M133.849 200.148C134.259 198.847 133.231 197.363 131.552 196.834C129.874 196.304 128.18 196.93 127.77 198.231C127.36 199.531 128.388 201.015 130.067 201.544C131.746 202.074 133.439 201.448 133.849 200.148Z" fill="#FEDD88"/>
<path d="M158.513 195.637C158.939 194.285 157.891 192.75 156.172 192.208C154.453 191.666 152.713 192.322 152.287 193.674C151.861 195.025 152.909 196.56 154.629 197.102C156.348 197.644 158.087 196.988 158.513 195.637Z" fill="#FEDD88"/>
<path d="M159.024 201.438C159.302 200.147 158.099 198.794 156.336 198.415C154.574 198.035 152.92 198.774 152.643 200.064C152.365 201.354 153.568 202.707 155.331 203.087C157.093 203.466 158.747 202.728 159.024 201.438Z" fill="#FEDD88"/>
<path d="M165.205 188.019C166.118 187.073 165.881 185.364 164.677 184.203C163.472 183.041 161.756 182.866 160.844 183.812C159.931 184.758 160.168 186.466 161.372 187.628C162.577 188.79 164.293 188.965 165.205 188.019Z" fill="#FEDD88"/>
</g>
<g clip-path="url(#clip1_291_1518)">
<path d="M108.833 169.138C109.704 168.146 109.312 166.378 107.958 165.188C106.603 163.999 104.799 163.839 103.928 164.83C103.058 165.822 103.45 167.59 104.804 168.779C106.159 169.969 107.962 170.129 108.833 169.138Z" fill="#FEDD88"/>
<path d="M85.6636 168.346C86.6109 167.367 86.3422 165.57 85.0634 164.332C83.7846 163.095 81.98 162.885 81.0327 163.864C80.0853 164.842 80.354 166.639 81.6328 167.877C82.9116 169.114 84.7163 169.324 85.6636 168.346Z" fill="#FEDD88"/>
<path d="M90.8021 162.327C89.8128 160.946 88.1133 160.471 87.0061 161.264C85.8989 162.058 85.8034 163.82 86.7927 165.2C87.782 166.581 89.4815 167.056 90.5887 166.263C91.6959 165.469 91.7914 163.707 90.8021 162.327Z" fill="#FEDD88"/>
<path d="M82.5973 172.786C83.3772 171.641 82.7364 169.846 81.1662 168.776C79.596 167.706 77.6909 167.767 76.911 168.912C76.1312 170.057 76.7719 171.852 78.3422 172.922C79.9124 173.991 81.8175 173.93 82.5973 172.786Z" fill="#FEDD88"/>
<path d="M108.905 173.055C110.645 167.789 117.308 166.863 118.743 169.506C120.279 172.339 116.947 173.107 115.855 175.211C115.184 176.503 115.54 179.983 112.609 180.344C110.051 180.659 107.769 176.49 108.905 173.055ZM85.0684 171.458C87.0066 168.452 92.3788 167.175 94.0435 169.807C95.6106 172.286 91.8033 174.067 91.0126 175.612C89.9815 177.626 89.5901 181.134 86.9066 180.443C83.8779 179.66 83.3684 174.097 85.0684 171.458Z" fill="#FEDD88"/>
<path d="M82.2584 178.002C82.6686 176.702 81.6402 175.218 79.9615 174.689C78.2828 174.159 76.5894 174.785 76.1792 176.085C75.769 177.386 76.7974 178.87 78.4761 179.399C80.1548 179.928 81.8482 179.303 82.2584 178.002Z" fill="#FEDD88"/>
<path d="M106.922 173.492C107.348 172.14 106.3 170.605 104.581 170.063C102.862 169.521 101.123 170.177 100.696 171.528C100.27 172.88 101.318 174.415 103.038 174.957C104.757 175.499 106.496 174.843 106.922 173.492Z" fill="#FEDD88"/>
<path d="M107.433 179.292C107.711 178.002 106.508 176.649 104.745 176.269C102.983 175.89 101.329 176.628 101.052 177.918C100.774 179.209 101.977 180.562 103.74 180.941C105.502 181.321 107.156 180.582 107.433 179.292Z" fill="#FEDD88"/>
<path d="M113.615 165.874C114.527 164.928 114.29 163.219 113.086 162.057C111.882 160.895 110.165 160.72 109.253 161.666C108.34 162.612 108.577 164.321 109.781 165.483C110.986 166.645 112.702 166.82 113.615 165.874Z" fill="#FEDD88"/>
</g>
<defs>
<clipPath id="clip0_291_1518">
<rect width="41" height="41" fill="white" transform="translate(118.903 192.317) rotate(-42.4979)"/>
</clipPath>
<clipPath id="clip1_291_1518">
<rect width="41" height="41" fill="white" transform="translate(67.3125 170.171) rotate(-42.4979)"/>
</clipPath>
</defs>
</svg>
