<svg width="112" height="56" viewBox="0 0 112 56" fill="none" xmlns="http://www.w3.org/2000/svg">
<path d="M98.0393 5.61866C87.347 1.05205 71.5714 0.565164 55.9669 1.87089C47.4454 2.58394 38.4305 3.54281 30.2512 5.23103C22.0908 6.91533 14.6585 9.34508 9.36743 13.0586C3.94796 16.8621 1.83459 21.1102 1.88422 25.4656C1.9328 29.7282 4.05646 33.8817 6.61988 37.556C11.708 44.849 21.1561 50.905 36.4272 53.0272C52.6334 55.2793 72.3364 54.6956 87.9282 49.0624C95.5148 46.3214 100.65 42.6633 104.144 38.5978C107.638 34.5332 109.446 30.1152 110.46 25.9253C111.409 22.001 111.091 18.0779 109.087 14.5305C107.089 10.995 103.478 7.94139 98.0393 5.61866Z" fill="#FEFEFB" stroke="#52A038" stroke-width="2"/>
</svg>
