<svg width="153" height="52" viewBox="0 0 153 52" fill="none" xmlns="http://www.w3.org/2000/svg">
<rect width="153" height="52" rx="26" fill="#52A038"/>
<ellipse cx="25.5" cy="26" rx="14.5" ry="14" fill="white"/>
<path d="M34 26L24 20.2265V31.7735L34 26ZM18 27H25V25H18V27Z" fill="#52A038"/>
<path d="M63.168 26.348H68.01V27.428H63.168V26.348ZM58.848 18.86H67.092V19.976H58.848V18.86ZM57.174 26.348H61.944V27.428H57.174V26.348ZM52.422 21.65H58.074V22.892H52.422V21.65ZM54.654 16.898H55.968V33.44H54.654V16.898ZM61.548 26.348H62.682C62.682 26.348 62.682 26.726 62.664 26.888C62.52 31.028 62.376 32.468 61.998 32.954C61.764 33.26 61.494 33.386 61.116 33.404C60.792 33.458 60.288 33.458 59.766 33.422C59.748 33.098 59.658 32.63 59.478 32.342C59.982 32.396 60.396 32.396 60.612 32.396C60.81 32.396 60.918 32.36 61.026 32.198C61.278 31.892 61.422 30.488 61.548 26.582V26.348ZM67.632 26.348H68.784C68.784 26.348 68.784 26.726 68.766 26.888C68.64 31.01 68.514 32.468 68.136 32.954C67.884 33.26 67.632 33.368 67.236 33.404C66.894 33.458 66.336 33.458 65.76 33.422C65.724 33.08 65.616 32.612 65.454 32.306C66.012 32.36 66.48 32.36 66.696 32.36C66.912 32.36 67.02 32.342 67.146 32.18C67.38 31.874 67.506 30.488 67.632 26.582V26.348ZM66.822 18.86H68.082C68.082 18.86 68.046 19.22 68.028 19.4C67.794 22.064 67.56 23.144 67.128 23.576C66.84 23.882 66.534 23.99 66.066 24.026C65.67 24.044 64.932 24.062 64.176 24.008C64.14 23.648 64.014 23.162 63.816 22.856C64.554 22.928 65.274 22.928 65.562 22.928C65.832 22.928 65.976 22.91 66.102 22.784C66.408 22.496 66.624 21.506 66.822 19.04V18.86ZM62.556 16.88H63.834C63.582 20.534 62.592 23 58.83 24.404C58.704 24.116 58.38 23.666 58.146 23.45C61.62 22.244 62.358 20.066 62.556 16.88ZM59.064 24.494H60.252C60.144 28.364 59.658 31.568 57.426 33.476C57.264 33.224 56.922 32.828 56.67 32.648C58.668 30.956 58.974 28.004 59.064 24.494ZM64.986 24.458H66.192C66.084 28.436 65.58 31.55 63.258 33.44C63.096 33.17 62.736 32.774 62.466 32.576C64.572 30.938 64.914 28.058 64.986 24.458ZM75.156 17.618H87.018V22.622H75.048V21.65H85.686V18.572H75.156V17.618ZM82.878 24.494V26.24H87.018V24.494H82.878ZM81.6 23.522H88.332V27.194H81.6V23.522ZM75.588 19.652H86.262V20.57H75.588V19.652ZM73.77 23.522H80.358V24.548H73.77V23.522ZM73.068 28.364H89.412V29.498H73.068V28.364ZM84.354 27.176H85.686V31.964C85.686 32.702 85.524 33.062 84.93 33.242C84.336 33.44 83.382 33.458 81.834 33.458C81.78 33.098 81.564 32.612 81.384 32.252C82.59 32.288 83.652 32.288 83.958 32.27C84.282 32.252 84.354 32.18 84.354 31.946V27.176ZM76.398 23.9H77.658V26.564H76.398V23.9ZM73.41 26.528C75.246 26.42 78 26.222 80.718 26.024V27.05C78.126 27.266 75.444 27.464 73.536 27.608L73.41 26.528ZM76.056 30.164L76.974 29.39C78.036 29.966 79.278 30.884 79.89 31.568L78.918 32.45C78.342 31.748 77.118 30.794 76.056 30.164ZM94.596 20.48H108.906V21.812H94.596V20.48ZM95.424 25.772H108.15V27.086H95.424V25.772ZM93.768 31.514H109.806V32.846H93.768V31.514ZM101.022 21.542H102.48V32.198H101.022V21.542ZM99.474 17.708L100.572 16.952C101.742 17.78 103.2 19.004 103.902 19.868L102.732 20.714C102.084 19.868 100.662 18.59 99.474 17.708ZM121.344 17.438H122.838C122.694 20.264 122.424 29.246 114.972 33.296C114.738 32.954 114.288 32.54 113.874 32.234C121.218 28.49 121.218 19.832 121.344 17.438ZM122.784 17.798C122.838 19.202 123.36 28.76 130.776 32.162C130.38 32.468 129.966 32.918 129.75 33.296C122.118 29.642 121.614 19.58 121.488 17.924L122.784 17.798Z" fill="#FEFEFB"/>
</svg>
