<svg width="312" height="172" viewBox="0 0 312 172" fill="none" xmlns="http://www.w3.org/2000/svg">
<path d="M14.8984 59.3217C12.7135 59.1585 11.037 57.2114 11.2002 55.0265L11.2918 53.8009C11.4749 51.3496 13.5899 49.5784 15.9879 49.7576L19.6115 50.0282L19.1936 55.6236C19.0304 57.8084 17.0832 59.4849 14.8984 59.3217Z" fill="#F8312F"/>
<path d="M75.7357 90.659L59.749 89.4648L64.0503 136.621C64.1504 137.432 64.7994 138.07 65.5987 138.13L78.6013 139.101C79.4006 139.16 80.0958 138.462 80.0489 137.655L75.7357 90.659ZM99.2362 92.4144L115.223 93.6085L101.238 139.506C101.022 140.24 100.343 140.725 99.5439 140.665L86.5413 139.694C86.3423 139.685 86.1479 139.631 85.9737 139.534C85.7995 139.437 85.6502 139.301 85.5377 139.137C85.4252 138.972 85.3525 138.784 85.3254 138.587C85.2984 138.389 85.3177 138.188 85.3818 138L99.2362 92.4144Z" fill="#D3883E"/>
<path d="M98.9302 31.9462C100.482 24.9281 104.548 18.7206 110.363 14.4953C116.177 10.27 123.337 8.31913 130.491 9.01086C145.974 10.4889 157.767 24.0698 157.035 39.6087C156.782 45.2424 154.913 50.6842 151.65 55.2838C148.387 59.8835 143.869 63.4466 138.636 65.5473C138.785 66.9196 138.814 68.3204 138.708 69.7485L136.606 97.8851C136.562 98.4713 136.842 99.0281 137.248 99.3264L143.173 103.949C145.349 105.665 146.539 108.38 146.386 111.155L144.057 142.329C143.989 143.235 143.188 143.925 142.282 143.858L129.599 142.91C128.693 142.842 128.003 142.041 128.07 141.135L129.456 122.59C129.507 121.897 129.125 121.279 128.505 120.965L115.839 114.768C112.289 113.035 109.33 110.291 107.335 106.881C105.34 103.471 104.397 99.5476 104.625 95.6034L82.6633 91.1765L56.4733 94.5789L56.0076 100.814C55.3827 109.18 48.1667 115.393 39.8004 114.768L33.5655 114.302L33.4143 116.327C33.2789 118.139 31.6754 119.52 29.8636 119.384L20.538 118.688C18.6729 118.548 17.2922 116.945 17.4276 115.133L17.6943 111.563C18.2913 103.569 25.2209 97.6031 33.161 98.1962L40.0886 98.7136L40.4986 93.2248C34.1791 86.0009 31.027 76.5486 31.7434 66.9566L32.4918 56.9382C32.5594 56.0323 31.8691 55.2306 30.9632 55.1629L21.9574 54.4902C13.1114 53.8294 6.50404 46.1553 7.1648 37.3093L7.26033 36.0304C7.42751 33.7923 9.37467 32.1158 11.6128 32.2829L19.6595 32.884C21.9509 33.0552 24.0913 31.661 24.7914 29.4627L25.4143 27.5801C26.8639 23.2074 29.7316 19.4437 33.5628 16.8857C37.3941 14.3277 41.9696 13.1218 46.5639 13.4591L56.902 14.2313C59.9928 14.4622 62.6738 16.5916 63.5779 19.5528L68.9971 36.6765L69.2857 37.6197C70.3625 41.2101 72.2925 47.656 79.5127 47.2683L116.19 45.5067C119.901 45.4926 123.557 46.3977 126.832 48.1413C130.107 49.8849 132.9 52.4126 134.96 55.4986C138.284 54.0877 141.13 51.7479 143.157 48.7599C145.184 45.7719 146.306 42.2626 146.389 38.6527C146.569 29.0742 139.415 20.8234 129.961 19.6886C122.369 18.7463 115.393 22.4586 111.726 28.5079C109.59 31.9922 105.586 33.9438 101.536 33.6413L100.151 33.5378C99.9616 33.525 99.7771 33.472 99.6098 33.3824C99.4425 33.2927 99.2963 33.1685 99.1808 33.0179C99.0653 32.8673 98.9832 32.6938 98.94 32.509C98.8967 32.3242 98.8934 32.1324 98.9302 31.9462Z" fill="#F3AD61"/>
<path d="M56.4734 94.5787L57.2656 83.9742L97.0764 86.8943C101.606 87.2327 104.956 91.1643 104.624 95.6139C100.897 97.036 96.9002 97.6124 92.9231 97.3014L56.4734 94.5787Z" fill="#FFDEA7"/>
<path d="M34.0721 35.7825C33.9647 37.2213 35.0455 38.5345 36.5376 38.646C38.0296 38.7574 39.2936 37.6194 39.401 36.1805L39.6279 33.1431C39.7394 31.651 38.6546 30.3911 37.1625 30.2796C35.6704 30.1681 34.4105 31.2529 34.299 32.745L34.0721 35.7825ZM10.9625 40.2723L13.627 40.4713C15.8118 40.6345 17.759 38.9581 17.9222 36.7732C18.0854 34.5884 16.4089 32.6412 14.2241 32.478L11.5596 32.279C9.37477 32.1158 7.4276 33.7923 7.2644 35.9771C7.1012 38.162 8.77769 40.1091 10.9625 40.2723Z" fill="#212121"/>
<path d="M46.4575 13.4512L65.4284 14.8682C69.3185 15.1588 71.9215 19.0507 70.6797 22.7626L66.531 35.2598C65.3424 38.9757 61.7329 41.3854 57.7895 41.0908C53.8994 40.8002 50.688 37.881 50.0114 34.0259L46.4575 13.4512Z" fill="#D3883E"/>
<g clip-path="url(#clip0_291_1491)">
<path d="M182.695 105.752C183.225 107.282 184.432 108.56 185.26 107.518C185.933 106.673 184.402 105.863 182.695 105.752L182.695 105.752ZM178.947 109.773C179.56 111.269 180.839 112.486 181.617 111.414C182.247 110.544 180.667 109.807 178.947 109.773L178.947 109.773ZM188.583 104.786C188.924 106.342 189.978 107.715 190.941 106.77C191.723 106.003 190.284 105.06 188.583 104.786L188.583 104.786ZM178.586 115.049C179.18 116.508 180.461 117.612 181.162 116.78C182.026 115.754 180.343 115.07 178.586 115.049ZM185.788 108.326C184.098 110.168 188.249 113.271 189.858 111.519C191.44 109.797 187.451 106.514 185.788 108.326L185.788 108.326ZM182.447 111.802C182.422 111.829 182.398 111.857 182.373 111.887C180.776 113.793 185.111 116.687 186.632 114.873C188.104 113.118 184.074 110.107 182.447 111.802ZM182.667 116.797C182.614 116.849 182.565 116.905 182.52 116.963C181.007 118.923 185.495 121.627 186.936 119.763C188.309 117.987 184.275 115.216 182.667 116.797ZM191.568 107.925C189.765 109.675 193.66 113.04 195.377 111.375C197.065 109.738 193.343 106.202 191.568 107.925ZM189.259 114.45C187.49 116.309 190.905 116.556 188.873 120.742C187.298 123.986 191.537 124.72 193.672 122.59C194.844 121.421 194.269 120.188 195.229 119.231C196.318 118.144 197.293 118.787 198.888 117.196C200.923 115.164 199.344 111.723 196.091 113.288C191.949 115.28 191.27 112.464 189.348 114.36C189.318 114.391 189.287 114.421 189.259 114.45Z" fill="#FEDD88"/>
<path d="M182.695 105.752C183.225 107.282 184.432 108.56 185.26 107.518C185.933 106.673 184.402 105.863 182.695 105.752L182.695 105.752ZM178.947 109.773C179.56 111.269 180.839 112.486 181.617 111.414C182.247 110.544 180.667 109.807 178.947 109.773L178.947 109.773ZM188.583 104.786C188.924 106.342 189.978 107.715 190.941 106.77C191.723 106.003 190.284 105.06 188.583 104.786L188.583 104.786ZM178.586 115.049C179.18 116.508 180.461 117.612 181.162 116.78C182.026 115.754 180.343 115.07 178.586 115.049ZM185.788 108.326C184.098 110.168 188.249 113.271 189.858 111.519C191.44 109.797 187.451 106.514 185.788 108.326L185.788 108.326ZM182.447 111.802C182.422 111.829 182.398 111.857 182.373 111.887C180.776 113.793 185.111 116.687 186.632 114.873C188.104 113.118 184.074 110.107 182.447 111.802ZM182.667 116.797C182.614 116.849 182.565 116.905 182.52 116.963C181.007 118.923 185.495 121.627 186.936 119.763C188.309 117.987 184.275 115.216 182.667 116.797ZM191.568 107.925C189.765 109.675 193.66 113.04 195.377 111.375C197.065 109.738 193.343 106.202 191.568 107.925ZM189.259 114.45C187.49 116.309 190.905 116.556 188.873 120.742C187.298 123.986 191.537 124.72 193.672 122.59C194.844 121.421 194.269 120.188 195.229 119.231C196.318 118.144 197.293 118.787 198.888 117.196C200.923 115.164 199.344 111.723 196.091 113.288C191.949 115.28 191.27 112.464 189.348 114.36C189.318 114.391 189.287 114.421 189.259 114.45Z" fill="#FEDD88"/>
<path d="M182.695 105.752C183.225 107.282 184.432 108.56 185.26 107.518C185.933 106.673 184.402 105.863 182.695 105.752L182.695 105.752ZM178.947 109.773C179.56 111.269 180.839 112.486 181.617 111.414C182.247 110.544 180.667 109.807 178.947 109.773L178.947 109.773ZM188.583 104.786C188.924 106.342 189.978 107.715 190.941 106.77C191.723 106.003 190.284 105.06 188.583 104.786L188.583 104.786ZM178.586 115.049C179.18 116.508 180.461 117.612 181.162 116.78C182.026 115.754 180.343 115.07 178.586 115.049ZM185.788 108.326C184.098 110.168 188.249 113.271 189.858 111.519C191.44 109.797 187.451 106.514 185.788 108.326L185.788 108.326ZM182.447 111.802C182.422 111.829 182.398 111.857 182.373 111.887C180.776 113.793 185.111 116.687 186.632 114.873C188.104 113.118 184.074 110.107 182.447 111.802ZM182.667 116.797C182.614 116.849 182.565 116.905 182.52 116.963C181.007 118.923 185.495 121.627 186.936 119.763C188.309 117.987 184.275 115.216 182.667 116.797ZM191.568 107.925C189.765 109.675 193.66 113.04 195.377 111.375C197.065 109.738 193.343 106.202 191.568 107.925ZM189.259 114.45C187.49 116.309 190.905 116.556 188.873 120.742C187.298 123.986 191.537 124.72 193.672 122.59C194.844 121.421 194.269 120.188 195.229 119.231C196.318 118.144 197.293 118.787 198.888 117.196C200.923 115.164 199.344 111.723 196.091 113.288C191.949 115.28 191.27 112.464 189.348 114.36C189.318 114.391 189.287 114.421 189.259 114.45Z" fill="#FEDD88"/>
<path d="M182.695 105.752C183.225 107.282 184.432 108.56 185.26 107.518C185.933 106.673 184.402 105.863 182.695 105.752L182.695 105.752ZM178.947 109.773C179.56 111.269 180.839 112.486 181.617 111.414C182.247 110.544 180.667 109.807 178.947 109.773L178.947 109.773ZM188.583 104.786C188.924 106.342 189.978 107.715 190.941 106.77C191.723 106.003 190.284 105.06 188.583 104.786L188.583 104.786ZM178.586 115.049C179.18 116.508 180.461 117.612 181.162 116.78C182.026 115.754 180.343 115.07 178.586 115.049ZM185.788 108.326C184.098 110.168 188.249 113.271 189.858 111.519C191.44 109.797 187.451 106.514 185.788 108.326L185.788 108.326ZM182.447 111.802C182.422 111.829 182.398 111.857 182.373 111.887C180.776 113.793 185.111 116.687 186.632 114.873C188.104 113.118 184.074 110.107 182.447 111.802ZM182.667 116.797C182.614 116.849 182.565 116.905 182.52 116.963C181.007 118.923 185.495 121.627 186.936 119.763C188.309 117.987 184.275 115.216 182.667 116.797ZM191.568 107.925C189.765 109.675 193.66 113.04 195.377 111.375C197.065 109.738 193.343 106.202 191.568 107.925ZM189.259 114.45C187.49 116.309 190.905 116.556 188.873 120.742C187.298 123.986 191.537 124.72 193.672 122.59C194.844 121.421 194.269 120.188 195.229 119.231C196.318 118.144 197.293 118.787 198.888 117.196C200.923 115.164 199.344 111.723 196.091 113.288C191.949 115.28 191.27 112.464 189.348 114.36C189.318 114.391 189.287 114.421 189.259 114.45Z" fill="#FEDD88"/>
<path d="M211.997 110.122C212.527 111.652 213.734 112.931 214.563 111.889C215.236 111.043 213.704 110.233 211.997 110.122L211.997 110.122ZM208.25 114.143C208.863 115.639 210.142 116.856 210.919 115.784C211.55 114.914 209.97 114.177 208.25 114.143L208.25 114.143ZM217.886 109.156C218.227 110.712 219.281 112.086 220.244 111.14C221.026 110.373 219.587 109.43 217.886 109.156L217.886 109.156ZM207.889 119.419C208.483 120.878 209.763 121.983 210.465 121.15C211.329 120.125 209.646 119.44 207.889 119.419ZM215.091 112.696C213.401 114.538 217.552 117.641 219.161 115.889C220.743 114.167 216.754 110.884 215.091 112.696L215.091 112.696ZM211.75 116.172C211.724 116.199 211.701 116.228 211.676 116.257C210.078 118.164 214.413 121.057 215.934 119.243C217.406 117.488 213.376 114.477 211.75 116.172ZM211.97 121.167C211.917 121.219 211.868 121.275 211.823 121.333C210.309 123.293 214.798 125.997 216.239 124.133C217.611 122.357 213.578 119.586 211.97 121.167ZM220.871 112.295C219.067 114.046 222.963 117.41 224.68 115.745C226.368 114.108 222.646 110.572 220.871 112.295ZM218.562 118.82C216.793 120.679 220.207 120.927 218.176 125.112C216.601 128.356 220.84 129.091 222.975 126.96C224.147 125.791 223.572 124.558 224.531 123.601C225.62 122.514 226.596 123.157 228.19 121.566C230.226 119.534 228.647 116.093 225.393 117.658C221.252 119.65 220.572 116.834 218.651 118.73C218.621 118.761 218.59 118.791 218.562 118.82Z" fill="#FEDD88"/>
<path d="M211.997 110.122C212.527 111.652 213.734 112.931 214.563 111.889C215.236 111.043 213.704 110.233 211.997 110.122L211.997 110.122ZM208.25 114.143C208.863 115.639 210.142 116.856 210.919 115.784C211.55 114.914 209.97 114.177 208.25 114.143L208.25 114.143ZM217.886 109.156C218.227 110.712 219.281 112.086 220.244 111.14C221.026 110.373 219.587 109.43 217.886 109.156L217.886 109.156ZM207.889 119.419C208.483 120.878 209.763 121.983 210.465 121.15C211.329 120.125 209.646 119.44 207.889 119.419ZM215.091 112.696C213.401 114.538 217.552 117.641 219.161 115.889C220.743 114.167 216.754 110.884 215.091 112.696L215.091 112.696ZM211.75 116.172C211.724 116.199 211.701 116.228 211.676 116.257C210.078 118.164 214.413 121.057 215.934 119.243C217.406 117.488 213.376 114.477 211.75 116.172ZM211.97 121.167C211.917 121.219 211.868 121.275 211.823 121.333C210.309 123.293 214.798 125.997 216.239 124.133C217.611 122.357 213.578 119.586 211.97 121.167ZM220.871 112.295C219.067 114.046 222.963 117.41 224.68 115.745C226.368 114.108 222.646 110.572 220.871 112.295ZM218.562 118.82C216.793 120.679 220.207 120.927 218.176 125.112C216.601 128.356 220.84 129.091 222.975 126.96C224.147 125.791 223.572 124.558 224.531 123.601C225.62 122.514 226.596 123.157 228.19 121.566C230.226 119.534 228.647 116.093 225.393 117.658C221.252 119.65 220.572 116.834 218.651 118.73C218.621 118.761 218.59 118.791 218.562 118.82Z" fill="#FEDD88"/>
<path d="M211.997 110.122C212.527 111.652 213.734 112.931 214.563 111.889C215.236 111.043 213.704 110.233 211.997 110.122L211.997 110.122ZM208.25 114.143C208.863 115.639 210.142 116.856 210.919 115.784C211.55 114.914 209.97 114.177 208.25 114.143L208.25 114.143ZM217.886 109.156C218.227 110.712 219.281 112.086 220.244 111.14C221.026 110.373 219.587 109.43 217.886 109.156L217.886 109.156ZM207.889 119.419C208.483 120.878 209.763 121.983 210.465 121.15C211.329 120.125 209.646 119.44 207.889 119.419ZM215.091 112.696C213.401 114.538 217.552 117.641 219.161 115.889C220.743 114.167 216.754 110.884 215.091 112.696L215.091 112.696ZM211.75 116.172C211.724 116.199 211.701 116.228 211.676 116.257C210.078 118.164 214.413 121.057 215.934 119.243C217.406 117.488 213.376 114.477 211.75 116.172ZM211.97 121.167C211.917 121.219 211.868 121.275 211.823 121.333C210.309 123.293 214.798 125.997 216.239 124.133C217.611 122.357 213.578 119.586 211.97 121.167ZM220.871 112.295C219.067 114.046 222.963 117.41 224.68 115.745C226.368 114.108 222.646 110.572 220.871 112.295ZM218.562 118.82C216.793 120.679 220.207 120.927 218.176 125.112C216.601 128.356 220.84 129.091 222.975 126.96C224.147 125.791 223.572 124.558 224.531 123.601C225.62 122.514 226.596 123.157 228.19 121.566C230.226 119.534 228.647 116.093 225.393 117.658C221.252 119.65 220.572 116.834 218.651 118.73C218.621 118.761 218.59 118.791 218.562 118.82Z" fill="#FEDD88"/>
<path d="M211.997 110.122C212.527 111.652 213.734 112.931 214.563 111.889C215.236 111.043 213.704 110.233 211.997 110.122L211.997 110.122ZM208.25 114.143C208.863 115.639 210.142 116.856 210.919 115.784C211.55 114.914 209.97 114.177 208.25 114.143L208.25 114.143ZM217.886 109.156C218.227 110.712 219.281 112.086 220.244 111.14C221.026 110.373 219.587 109.43 217.886 109.156L217.886 109.156ZM207.889 119.419C208.483 120.878 209.763 121.983 210.465 121.15C211.329 120.125 209.646 119.44 207.889 119.419ZM215.091 112.696C213.401 114.538 217.552 117.641 219.161 115.889C220.743 114.167 216.754 110.884 215.091 112.696L215.091 112.696ZM211.75 116.172C211.724 116.199 211.701 116.228 211.676 116.257C210.078 118.164 214.413 121.057 215.934 119.243C217.406 117.488 213.376 114.477 211.75 116.172ZM211.97 121.167C211.917 121.219 211.868 121.275 211.823 121.333C210.309 123.293 214.798 125.997 216.239 124.133C217.611 122.357 213.578 119.586 211.97 121.167ZM220.871 112.295C219.067 114.046 222.963 117.41 224.68 115.745C226.368 114.108 222.646 110.572 220.871 112.295ZM218.562 118.82C216.793 120.679 220.207 120.927 218.176 125.112C216.601 128.356 220.84 129.091 222.975 126.96C224.147 125.791 223.572 124.558 224.531 123.601C225.62 122.514 226.596 123.157 228.19 121.566C230.226 119.534 228.647 116.093 225.393 117.658C221.252 119.65 220.572 116.834 218.651 118.73C218.621 118.761 218.59 118.791 218.562 118.82Z" fill="#FEDD88"/>
<path d="M247.689 134.734C248.219 136.264 249.426 137.543 250.255 136.501C250.927 135.655 249.396 134.846 247.689 134.734L247.689 134.734ZM243.941 138.755C244.554 140.252 245.833 141.468 246.611 140.396C247.242 139.526 245.661 138.79 243.941 138.755L243.941 138.755ZM253.578 133.769C253.918 135.324 254.972 136.698 255.935 135.753C256.717 134.986 255.278 134.042 253.578 133.769L253.578 133.769ZM243.58 144.031C244.174 145.491 245.455 146.595 246.156 145.763C247.02 144.737 245.337 144.052 243.58 144.031ZM250.782 137.308C249.092 139.15 253.244 142.253 254.852 140.501C256.434 138.779 252.445 135.496 250.782 137.308L250.782 137.308ZM247.442 140.785C247.416 140.812 247.392 140.84 247.368 140.869C245.77 142.776 250.105 145.669 251.626 143.855C253.098 142.1 249.068 139.089 247.442 140.785ZM247.662 145.779C247.608 145.832 247.559 145.887 247.514 145.945C246.001 147.905 250.489 150.61 251.93 148.745C253.303 146.97 249.269 144.198 247.662 145.779ZM256.563 136.907C254.759 138.658 258.654 142.023 260.371 140.357C262.059 138.72 258.337 135.185 256.563 136.907ZM254.253 143.433C252.484 145.291 255.899 145.539 253.867 149.724C252.292 152.969 256.532 153.703 258.666 151.572C259.838 150.403 259.263 149.17 260.223 148.213C261.312 147.126 262.287 147.769 263.882 146.178C265.917 144.146 264.338 140.706 261.085 142.27C256.943 144.263 256.264 141.446 254.343 143.343C254.312 143.373 254.281 143.403 254.253 143.433Z" fill="#FEDD88"/>
<path d="M247.689 134.734C248.219 136.264 249.426 137.543 250.255 136.501C250.927 135.655 249.396 134.846 247.689 134.734L247.689 134.734ZM243.941 138.755C244.554 140.252 245.833 141.468 246.611 140.396C247.242 139.526 245.661 138.79 243.941 138.755L243.941 138.755ZM253.578 133.769C253.918 135.324 254.972 136.698 255.935 135.753C256.717 134.986 255.278 134.042 253.578 133.769L253.578 133.769ZM243.58 144.031C244.174 145.491 245.455 146.595 246.156 145.763C247.02 144.737 245.337 144.052 243.58 144.031ZM250.782 137.308C249.092 139.15 253.244 142.253 254.852 140.501C256.434 138.779 252.445 135.496 250.782 137.308L250.782 137.308ZM247.442 140.785C247.416 140.812 247.392 140.84 247.368 140.869C245.77 142.776 250.105 145.669 251.626 143.855C253.098 142.1 249.068 139.089 247.442 140.785ZM247.662 145.779C247.608 145.832 247.559 145.887 247.514 145.945C246.001 147.905 250.489 150.61 251.93 148.745C253.303 146.97 249.269 144.198 247.662 145.779ZM256.563 136.907C254.759 138.658 258.654 142.023 260.371 140.357C262.059 138.72 258.337 135.185 256.563 136.907ZM254.253 143.433C252.484 145.291 255.899 145.539 253.867 149.724C252.292 152.969 256.532 153.703 258.666 151.572C259.838 150.403 259.263 149.17 260.223 148.213C261.312 147.126 262.287 147.769 263.882 146.178C265.917 144.146 264.338 140.706 261.085 142.27C256.943 144.263 256.264 141.446 254.343 143.343C254.312 143.373 254.281 143.403 254.253 143.433Z" fill="#FEDD88"/>
<path d="M247.689 134.734C248.219 136.264 249.426 137.543 250.255 136.501C250.927 135.655 249.396 134.846 247.689 134.734L247.689 134.734ZM243.941 138.755C244.554 140.252 245.833 141.468 246.611 140.396C247.242 139.526 245.661 138.79 243.941 138.755L243.941 138.755ZM253.578 133.769C253.918 135.324 254.972 136.698 255.935 135.753C256.717 134.986 255.278 134.042 253.578 133.769L253.578 133.769ZM243.58 144.031C244.174 145.491 245.455 146.595 246.156 145.763C247.02 144.737 245.337 144.052 243.58 144.031ZM250.782 137.308C249.092 139.15 253.244 142.253 254.852 140.501C256.434 138.779 252.445 135.496 250.782 137.308L250.782 137.308ZM247.442 140.785C247.416 140.812 247.392 140.84 247.368 140.869C245.77 142.776 250.105 145.669 251.626 143.855C253.098 142.1 249.068 139.089 247.442 140.785ZM247.662 145.779C247.608 145.832 247.559 145.887 247.514 145.945C246.001 147.905 250.489 150.61 251.93 148.745C253.303 146.97 249.269 144.198 247.662 145.779ZM256.563 136.907C254.759 138.658 258.654 142.023 260.371 140.357C262.059 138.72 258.337 135.185 256.563 136.907ZM254.253 143.433C252.484 145.291 255.899 145.539 253.867 149.724C252.292 152.969 256.532 153.703 258.666 151.572C259.838 150.403 259.263 149.17 260.223 148.213C261.312 147.126 262.287 147.769 263.882 146.178C265.917 144.146 264.338 140.706 261.085 142.27C256.943 144.263 256.264 141.446 254.343 143.343C254.312 143.373 254.281 143.403 254.253 143.433Z" fill="#FEDD88"/>
<path d="M247.689 134.734C248.219 136.264 249.426 137.543 250.255 136.501C250.927 135.655 249.396 134.846 247.689 134.734L247.689 134.734ZM243.941 138.755C244.554 140.252 245.833 141.468 246.611 140.396C247.242 139.526 245.661 138.79 243.941 138.755L243.941 138.755ZM253.578 133.769C253.918 135.324 254.972 136.698 255.935 135.753C256.717 134.986 255.278 134.042 253.578 133.769L253.578 133.769ZM243.58 144.031C244.174 145.491 245.455 146.595 246.156 145.763C247.02 144.737 245.337 144.052 243.58 144.031ZM250.782 137.308C249.092 139.15 253.244 142.253 254.852 140.501C256.434 138.779 252.445 135.496 250.782 137.308L250.782 137.308ZM247.442 140.785C247.416 140.812 247.392 140.84 247.368 140.869C245.77 142.776 250.105 145.669 251.626 143.855C253.098 142.1 249.068 139.089 247.442 140.785ZM247.662 145.779C247.608 145.832 247.559 145.887 247.514 145.945C246.001 147.905 250.489 150.61 251.93 148.745C253.303 146.97 249.269 144.198 247.662 145.779ZM256.563 136.907C254.759 138.658 258.654 142.023 260.371 140.357C262.059 138.72 258.337 135.185 256.563 136.907ZM254.253 143.433C252.484 145.291 255.899 145.539 253.867 149.724C252.292 152.969 256.532 153.703 258.666 151.572C259.838 150.403 259.263 149.17 260.223 148.213C261.312 147.126 262.287 147.769 263.882 146.178C265.917 144.146 264.338 140.706 261.085 142.27C256.943 144.263 256.264 141.446 254.343 143.343C254.312 143.373 254.281 143.403 254.253 143.433Z" fill="#FEDD88"/>
<path d="M276.992 139.105C277.522 140.635 278.729 141.913 279.558 140.872C280.231 140.026 278.699 139.216 276.993 139.105L276.992 139.105ZM273.245 143.126C273.858 144.622 275.137 145.839 275.914 144.767C276.545 143.897 274.965 143.16 273.245 143.126L273.245 143.126ZM282.881 138.139C283.222 139.695 284.276 141.068 285.239 140.123C286.021 139.356 284.582 138.413 282.881 138.139L282.881 138.139ZM272.884 148.402C273.478 149.861 274.758 150.966 275.46 150.133C276.324 149.107 274.641 148.423 272.884 148.402ZM280.086 141.679C278.396 143.521 282.547 146.624 284.156 144.872C285.738 143.15 281.749 139.867 280.086 141.679L280.086 141.679ZM276.745 145.155C276.72 145.182 276.696 145.21 276.671 145.24C275.074 147.146 279.408 150.04 280.929 148.226C282.402 146.471 278.371 143.46 276.745 145.155ZM276.965 150.15C276.912 150.202 276.863 150.258 276.818 150.316C275.304 152.276 279.793 154.98 281.234 153.116C282.606 151.34 278.573 148.569 276.965 150.15ZM285.866 141.278C284.062 143.028 287.958 146.393 289.675 144.728C291.363 143.091 287.641 139.555 285.866 141.278ZM283.557 147.803C281.788 149.662 285.203 149.909 283.171 154.095C281.596 157.339 285.835 158.073 287.97 155.943C289.142 154.774 288.567 153.541 289.526 152.584C290.616 151.497 291.591 152.14 293.185 150.549C295.221 148.517 293.642 145.076 290.389 146.641C286.247 148.633 285.567 145.817 283.646 147.713C283.616 147.744 283.585 147.774 283.557 147.803Z" fill="#FEDD88"/>
<path d="M276.992 139.105C277.522 140.635 278.729 141.913 279.558 140.872C280.231 140.026 278.699 139.216 276.993 139.105L276.992 139.105ZM273.245 143.126C273.858 144.622 275.137 145.839 275.914 144.767C276.545 143.897 274.965 143.16 273.245 143.126L273.245 143.126ZM282.881 138.139C283.222 139.695 284.276 141.068 285.239 140.123C286.021 139.356 284.582 138.413 282.881 138.139L282.881 138.139ZM272.884 148.402C273.478 149.861 274.758 150.966 275.46 150.133C276.324 149.107 274.641 148.423 272.884 148.402ZM280.086 141.679C278.396 143.521 282.547 146.624 284.156 144.872C285.738 143.15 281.749 139.867 280.086 141.679L280.086 141.679ZM276.745 145.155C276.72 145.182 276.696 145.21 276.671 145.24C275.074 147.146 279.408 150.04 280.929 148.226C282.402 146.471 278.371 143.46 276.745 145.155ZM276.965 150.15C276.912 150.202 276.863 150.258 276.818 150.316C275.304 152.276 279.793 154.98 281.234 153.116C282.606 151.34 278.573 148.569 276.965 150.15ZM285.866 141.278C284.062 143.028 287.958 146.393 289.675 144.728C291.363 143.091 287.641 139.555 285.866 141.278ZM283.557 147.803C281.788 149.662 285.203 149.909 283.171 154.095C281.596 157.339 285.835 158.073 287.97 155.943C289.142 154.774 288.567 153.541 289.526 152.584C290.616 151.497 291.591 152.14 293.185 150.549C295.221 148.517 293.642 145.076 290.389 146.641C286.247 148.633 285.567 145.817 283.646 147.713C283.616 147.744 283.585 147.774 283.557 147.803Z" fill="#FEDD88"/>
<path d="M276.992 139.105C277.522 140.635 278.729 141.913 279.558 140.872C280.231 140.026 278.699 139.216 276.993 139.105L276.992 139.105ZM273.245 143.126C273.858 144.622 275.137 145.839 275.914 144.767C276.545 143.897 274.965 143.16 273.245 143.126L273.245 143.126ZM282.881 138.139C283.222 139.695 284.276 141.068 285.239 140.123C286.021 139.356 284.582 138.413 282.881 138.139L282.881 138.139ZM272.884 148.402C273.478 149.861 274.758 150.966 275.46 150.133C276.324 149.107 274.641 148.423 272.884 148.402ZM280.086 141.679C278.396 143.521 282.547 146.624 284.156 144.872C285.738 143.15 281.749 139.867 280.086 141.679L280.086 141.679ZM276.745 145.155C276.72 145.182 276.696 145.21 276.671 145.24C275.074 147.146 279.408 150.04 280.929 148.226C282.402 146.471 278.371 143.46 276.745 145.155ZM276.965 150.15C276.912 150.202 276.863 150.258 276.818 150.316C275.304 152.276 279.793 154.98 281.234 153.116C282.606 151.34 278.573 148.569 276.965 150.15ZM285.866 141.278C284.062 143.028 287.958 146.393 289.675 144.728C291.363 143.091 287.641 139.555 285.866 141.278ZM283.557 147.803C281.788 149.662 285.203 149.909 283.171 154.095C281.596 157.339 285.835 158.073 287.97 155.943C289.142 154.774 288.567 153.541 289.526 152.584C290.616 151.497 291.591 152.14 293.185 150.549C295.221 148.517 293.642 145.076 290.389 146.641C286.247 148.633 285.567 145.817 283.646 147.713C283.616 147.744 283.585 147.774 283.557 147.803Z" fill="#FEDD88"/>
<path d="M276.992 139.105C277.522 140.635 278.729 141.913 279.558 140.872C280.231 140.026 278.699 139.216 276.993 139.105L276.992 139.105ZM273.245 143.126C273.858 144.622 275.137 145.839 275.914 144.767C276.545 143.897 274.965 143.16 273.245 143.126L273.245 143.126ZM282.881 138.139C283.222 139.695 284.276 141.068 285.239 140.123C286.021 139.356 284.582 138.413 282.881 138.139L282.881 138.139ZM272.884 148.402C273.478 149.861 274.758 150.966 275.46 150.133C276.324 149.107 274.641 148.423 272.884 148.402ZM280.086 141.679C278.396 143.521 282.547 146.624 284.156 144.872C285.738 143.15 281.749 139.867 280.086 141.679L280.086 141.679ZM276.745 145.155C276.72 145.182 276.696 145.21 276.671 145.24C275.074 147.146 279.408 150.04 280.929 148.226C282.402 146.471 278.371 143.46 276.745 145.155ZM276.965 150.15C276.912 150.202 276.863 150.258 276.818 150.316C275.304 152.276 279.793 154.98 281.234 153.116C282.606 151.34 278.573 148.569 276.965 150.15ZM285.866 141.278C284.062 143.028 287.958 146.393 289.675 144.728C291.363 143.091 287.641 139.555 285.866 141.278ZM283.557 147.803C281.788 149.662 285.203 149.909 283.171 154.095C281.596 157.339 285.835 158.073 287.97 155.943C289.142 154.774 288.567 153.541 289.526 152.584C290.616 151.497 291.591 152.14 293.185 150.549C295.221 148.517 293.642 145.076 290.389 146.641C286.247 148.633 285.567 145.817 283.646 147.713C283.616 147.744 283.585 147.774 283.557 147.803Z" fill="#FEDD88"/>
</g>
<defs>
<clipPath id="clip0_291_1491">
<rect width="137" height="64" fill="white" transform="translate(174.436 97.812) rotate(4.27184)"/>
</clipPath>
</defs>
</svg>
