<svg width="183" height="171" viewBox="0 0 183 171" fill="none" xmlns="http://www.w3.org/2000/svg">
<g clip-path="url(#clip0_397_1010)">
<path d="M77.0886 48.5645C77.8931 48.5006 79.5497 48.2105 79.0016 49.0618C78.5468 49.7681 77.4744 49.4154 77.4341 48.9081" stroke="white" stroke-width="3" stroke-linecap="round"/>
<path d="M95.8325 38.9062L95.7347 41.4716" stroke="white" stroke-width="2" stroke-linecap="round"/>
<path d="M64.6509 55.7315C50.7558 58.7724 29.7065 101.179 55.3458 100.379C48.7027 113.82 52.7859 132.867 66.547 139.98C80.4011 144.927 106.699 142.736 117.967 137.435C137.834 127.516 135.176 102.185 125.456 93.5736C130.461 93.7808 136.824 90.6782 137.846 87.3684C140.01 80.3609 129.908 60.2337 116.525 53.5482C110.64 51.8617 115.506 40.715 126.208 27.5965" stroke="white" stroke-width="2" stroke-linecap="round"/>
<path d="M59.7961 76.0001C59.7961 76.0001 56.7986 86.4501 56.7734 97.815" stroke="white" stroke-width="2" stroke-linecap="round"/>
<path d="M60.1269 74.978C61.1426 69.1658 65.2816 58.4445 68.0229 54.7408C71.4999 52.2358 74.0263 58.5334 75.6228 62.68C82.4475 60.8599 89.4235 60.9448 95.2225 62.1655" stroke="white" stroke-width="2" stroke-linecap="round"/>
<path d="M96.1815 61.6094C99.4923 60.7826 104.062 51.9633 105.669 53.5269C108.591 56.3702 110.251 61.6194 111.211 66.617C114.176 70.8916 120.406 81.7847 121.601 91.161" stroke="white" stroke-width="2" stroke-linecap="round"/>
<path d="M121.82 56.0296C122.342 55.9882 146.783 55.0187 129.917 27.3022" stroke="white" stroke-width="2" stroke-linecap="round"/>
<path d="M77.9122 71.5602C79.4075 71.4414 81.0211 71.2332 82.9756 72.1598" stroke="white" stroke-linecap="round"/>
<path d="M100.76 71.1898C99.2196 71.1673 97.5525 71.048 95.6086 72.3033" stroke="white" stroke-linecap="round"/>
<path d="M77.4978 28.4564C73.1819 41.8402 64.6742 43.82 65.6005 55.4833" stroke="white" stroke-width="2" stroke-linecap="round"/>
<path d="M63.9685 50.5971C41.3171 40.8351 62.0545 33.9378 64.2066 32.0802C71.693 25.6182 77.1045 15.959 91.9362 12.5359C108.707 9.46951 126.106 14.6777 129.537 26.8909" stroke="white" stroke-width="2" stroke-linecap="round"/>
<path d="M53.5264 42.3983C50.1821 40.4905 44.0251 35.3285 46.1516 29.9432" stroke="white" stroke-width="2" stroke-linecap="round"/>
<path d="M43.2085 26.1642C42.3809 28.7378 42.0028 31.2758 44.0001 36.1328" stroke="white" stroke-width="2" stroke-linecap="round"/>
<path d="M39.8547 34.4558C40.4009 38.3245 42.336 45.8484 45.7075 44.9937" stroke="white" stroke-width="2" stroke-linecap="round"/>
<path d="M77.0595 98.7116C82.6649 96.5369 101.028 93.3271 108.959 96.1779" stroke="white" stroke-width="2" stroke-linecap="round"/>
<path d="M27.6997 81.767C39.8964 80.7982 26.8783 129.974 15.4468 127.484C8.84495 126.046 8.42931 113.174 33.3855 126.059C40.8884 129.932 46.5702 128.225 53.4768 124.463" stroke="white" stroke-width="2" stroke-linecap="round"/>
<path d="M82.0335 121.819C84.0844 115.218 79.4721 110.835 75.7715 111.129C74.0656 111.206 69.702 113.095 69.1672 118.394C68.7133 122.891 72.2757 123.782 82.0335 121.819Z" stroke="white" stroke-width="2" stroke-linecap="round"/>
<path d="M104.69 120.019C101.623 113.825 105.486 108.769 109.186 108.475C110.883 108.282 115.49 109.458 116.854 114.606C118.013 118.975 114.636 120.417 104.69 120.019Z" stroke="white" stroke-width="2" stroke-linecap="round"/>
<path d="M89.1353 73.8623L90.4181 73.906" stroke="white" stroke-width="1.5" stroke-linecap="round"/>
<path d="M89.7383 74.9268L89.6294 76.3137M89.6294 76.3137C88.0749 77.3713 83.7734 77.8076 83.012 76.2594M89.6294 76.3137C91.274 77.6225 93.9441 77.5828 94.6014 76.239" stroke="white" stroke-linecap="round"/>
<path d="M77.7737 50.5037C77.2417 51.9778 77.8142 53.0236 77.365 53.5293M73.4948 53.8368C73.5976 55.1311 76.1571 54.8892 77.365 53.5293M77.365 53.5293C79.0139 55.2213 83.4426 56.4969 84.4603 52.9657" stroke="white" stroke-linecap="round"/>
<path d="M80.2639 36.28C80.1892 37.2886 80.126 38.142 80.0743 38.8402" stroke="white" stroke-width="2" stroke-linecap="round"/>
<path d="M46.9443 47.9368C47.2188 51.3925 49.404 58.6958 55.9486 60.2625" stroke="white" stroke-width="2" stroke-linecap="round"/>
<path d="M68.1017 74.3443L57.8164 71.1487" stroke="white" stroke-width="2" stroke-linecap="round"/>
<path d="M110.049 72.0157L118.783 68.3125" stroke="white" stroke-width="2" stroke-linecap="round"/>
<path d="M114.433 76.6832L123.167 72.98" stroke="white" stroke-width="2" stroke-linecap="round"/>
<path d="M63.5135 79.7246L53.3074 77.5259" stroke="white" stroke-width="2" stroke-linecap="round"/>
<path d="M100.162 138.896C97.4277 128.838 90.9815 135.386 90.2936 136.468C88.574 139.174 87.3085 142.485 95.2365 141.856C106.132 140.99 88.5585 163.678 84.8158 156.812C81.7959 151.272 116.727 136.296 118.819 146.404C121.415 158.943 138.297 123.665 150.156 134.925" stroke="white" stroke-width="2" stroke-linecap="round"/>
</g>
<defs>
<clipPath id="clip0_397_1010">
<rect width="171.074" height="157" fill="white" transform="translate(0 13.5459) rotate(-4.54156)"/>
</clipPath>
</defs>
</svg>
