<svg width="40" height="40" viewBox="0 0 40 40" fill="none" xmlns="http://www.w3.org/2000/svg">
<path d="M24.1034 39.7278C25.4599 39.7278 26.4201 38.561 27.1168 36.753L39.4533 4.52818C39.7924 3.66193 39.9997 2.88969 39.9997 2.24925C39.9997 1.02541 39.2274 0.272461 38.0028 0.272461C37.3624 0.272461 36.5901 0.460497 35.7239 0.799604L3.33031 13.21C1.74728 13.8126 0.523438 14.7729 0.523438 16.1478C0.523438 17.8803 1.8421 18.4645 3.65013 19.0109L17.2482 23.0031L21.2033 36.4316C21.7683 38.3336 22.3525 39.7278 24.1042 39.7278M18.0967 20.1416L5.10058 16.1671C4.79924 16.0723 4.70522 15.9967 4.70522 15.865C4.70522 15.7332 4.77995 15.64 5.06281 15.5267L30.5256 5.8838C32.0323 5.31889 33.4827 4.56514 34.8761 3.92469C33.6338 4.94202 32.0893 6.14737 31.0535 7.18318L18.0967 20.1416ZM24.4056 35.5854C24.2553 35.5854 24.1798 35.4528 24.0858 35.1515L20.1113 22.1569L33.0689 9.19934C34.0862 8.18202 35.3478 6.59978 36.3466 5.31969C35.7062 6.75005 34.9524 8.2005 34.3691 9.72648L24.7262 35.1893C24.6129 35.4721 24.5374 35.5854 24.4056 35.5854Z" fill="#626262"/>
</svg>
