<svg width="26" height="24" viewBox="0 0 26 24" fill="none" xmlns="http://www.w3.org/2000/svg">
<path id="Vector" d="M24.5429 6.88889C24.3421 6.80571 24.1283 6.76331 23.9128 6.76394H23.8903C22.7525 6.78179 21.4811 7.9057 20.8186 9.60555C20.0243 11.6392 20.4024 13.7198 21.6694 14.2547C21.87 14.3379 22.0836 14.3803 22.2989 14.3797C23.4423 14.3797 24.7312 13.2492 25.3994 11.538C26.188 9.50441 25.8043 7.42377 24.5429 6.88889ZM17.2344 14.8247C15.6547 12.0801 14.9735 11.0478 13.1796 11.0478C11.3857 11.0478 10.7074 12.0866 9.15051 14.8247C7.81761 17.1665 5.10499 17.3617 4.43629 19.3507C4.30047 19.715 4.23311 20.104 4.23796 20.496C4.24466 22.1138 5.42346 23.4233 6.86761 23.4233C8.66151 23.4233 11.0979 21.9127 13.2303 21.9127C15.3626 21.9127 17.8003 23.4233 19.5942 23.4233C21.0383 23.4233 22.2006 22.1144 22.1939 20.496C22.1936 20.1036 22.1211 19.7146 21.9804 19.3507C21.2952 17.3545 18.5867 17.1665 17.2344 14.8247ZM9.58714 8.42988C9.66268 8.42994 9.73809 8.42397 9.81272 8.41203C11.1212 8.21152 11.9307 6.29807 11.625 4.13711C11.3373 2.09991 10.1588 0.576172 8.93293 0.576172C8.8574 0.576108 8.78199 0.582075 8.70736 0.594022C7.39887 0.794529 6.58939 2.70798 6.89507 4.86894C7.18273 6.90019 8.36131 8.42988 9.58714 8.42988ZM19.4112 4.86894C19.699 2.70798 18.8736 0.794529 17.5635 0.594022C17.4888 0.582075 17.4133 0.576108 17.3378 0.576172C16.1119 0.576172 14.9483 2.09991 14.6769 4.13711C14.3891 6.29807 15.2145 8.21152 16.5246 8.41203C16.5994 8.42397 16.6748 8.42994 16.7503 8.42988C17.9762 8.42988 19.1421 6.90019 19.4112 4.86894ZM4.7181 14.2547C5.97895 13.7192 6.33926 11.6368 5.52922 9.60555C4.84744 7.8944 3.55036 6.76394 2.40858 6.76394C2.19331 6.76332 1.98006 6.80571 1.7801 6.88889C0.519254 7.42436 0.15895 9.50679 0.968984 11.538C1.65076 13.2492 2.94785 14.3797 4.08963 14.3797C4.3049 14.3803 4.51815 14.3379 4.7181 14.2547Z" fill="#52A038"/>
</svg>
