<svg width="26" height="24" viewBox="0 0 26 24" fill="none" xmlns="http://www.w3.org/2000/svg">
<path id="Vector" d="M24.1225 6.96838C23.9294 6.88974 23.7238 6.84966 23.5165 6.85025H23.4948C22.4005 6.86713 21.177 7.92974 20.5388 9.53687C19.7737 11.4596 20.1363 13.4267 21.3547 13.9324C21.5476 14.0111 21.7531 14.0512 21.9601 14.0506C23.06 14.0506 24.3003 12.9818 24.9438 11.3639C25.7035 9.44124 25.3355 7.47409 24.1225 6.96838ZM17.0885 14.4713C15.5706 11.8764 14.9159 10.9004 13.1904 10.9004C11.4649 10.9004 10.812 11.8826 9.31302 14.4713C8.02972 16.6854 5.42047 16.8699 4.77622 18.7505C4.64539 19.0949 4.58039 19.4627 4.58485 19.8333C4.59044 21.3628 5.72358 22.6009 7.11265 22.6009C8.83813 22.6009 11.1824 21.1727 13.2334 21.1727C15.2845 21.1727 17.6283 22.6009 19.3538 22.6009C20.7428 22.6009 21.8615 21.3634 21.8559 19.8333C21.8558 19.4623 21.7863 19.0945 21.6512 18.7505C20.9932 16.8632 18.388 16.6854 17.0885 14.4713ZM9.73638 8.42532C9.80904 8.42538 9.88157 8.41974 9.95337 8.40844C11.2121 8.21887 11.9917 6.4098 11.6988 4.36671C11.4232 2.44063 10.2904 1 9.11128 1C9.03863 0.999939 8.96609 1.00558 8.8943 1.01688C7.63561 1.20645 6.856 3.01552 7.14888 5.05861C7.42449 6.97907 8.55731 8.42532 9.73638 8.42532ZM19.1876 5.05861C19.4656 3.01552 18.6727 1.20645 17.4126 1.01688C17.3408 1.00558 17.2682 0.999939 17.1955 1C16.0165 1 14.8964 2.44063 14.6343 4.36671C14.3563 6.4098 15.1492 8.21887 16.4093 8.40844C16.4811 8.41974 16.5537 8.42538 16.6264 8.42532C17.8054 8.42532 18.9277 6.97907 19.1876 5.05861ZM5.04998 13.9324C6.26302 13.4262 6.61068 11.4573 5.83262 9.53687C5.17775 7.91905 3.93074 6.85025 2.83251 6.85025C2.62545 6.84966 2.42031 6.88975 2.22793 6.96838C1.0149 7.47465 0.667234 9.44349 1.4453 11.3639C2.10017 12.9818 3.34718 14.0506 4.44541 14.0506C4.65247 14.0512 4.85761 14.0111 5.04998 13.9324Z" fill="white" stroke="#FEFEFB" stroke-miterlimit="10"/>
</svg>
