<svg width="137" height="41" viewBox="0 0 137 41" fill="none" xmlns="http://www.w3.org/2000/svg">
<path d="M4.99114 18.6862L2.69101 5.01938L3.9246 4.81913L6.22473 18.486L4.99114 18.6862ZM31.5213 9.45934L32.6103 9.64054C31.8534 12.1422 30.6546 14.5704 27.6642 15.484C27.5799 15.2105 27.3141 14.7607 27.0931 14.5293C29.8627 13.7736 30.8932 11.577 31.5213 9.45934ZM28.2417 11.2331L28.9622 10.5096C30.5117 11.3351 32.3218 12.6419 33.2427 13.5412L32.5195 14.3779C31.5907 13.4286 29.7912 12.0586 28.2417 11.2331ZM35.317 9.65293L36.4375 9.83938C36.4375 9.83938 36.3798 10.1866 36.3377 10.3418C35.5602 14.0403 35.1686 15.4188 34.6979 15.8108C34.3955 16.0687 34.1088 16.1345 33.6748 16.111C33.2907 16.0795 32.5515 15.9403 31.815 15.7853C31.8543 15.4513 31.82 14.9752 31.6937 14.6622C32.4092 14.8461 33.0721 14.9564 33.3246 14.9984C33.5745 15.0562 33.7244 15.0325 33.8559 14.9246C34.1952 14.6405 34.5631 13.4041 35.2828 9.85811L35.317 9.65293ZM29.0719 17.2591L30.1767 17.4429L29.5439 21.2466C29.4782 21.6412 29.5308 21.7149 29.9728 21.7884C30.1779 21.8225 31.2038 21.9932 31.4564 22.0352C31.8825 22.1061 31.9824 21.8957 32.2923 20.3252C32.4818 20.5514 32.929 20.788 33.2289 20.9352C32.7823 22.8398 32.401 23.2791 31.4067 23.1137C31.1542 23.0717 29.9073 22.8642 29.6548 22.8222C28.4553 22.6226 28.2421 22.2466 28.4364 21.0786L29.0719 17.2591ZM27.4832 17.5463L28.4066 17.9432C27.9993 19.319 27.4131 20.7948 26.4296 21.5395L25.6429 20.8085C26.5291 20.1611 27.1074 18.83 27.4832 17.5463ZM29.5818 15.8517L30.3918 15.2728C31.3416 15.9985 32.4151 17.053 32.8887 17.8131L32.013 18.4946C31.5551 17.7372 30.5079 16.6222 29.5818 15.8517ZM32.91 18.5627L33.9542 18.331C34.6148 19.6249 35.0677 21.2898 35.1258 22.4025L33.9949 22.6684C33.9682 21.5611 33.539 19.8514 32.91 18.5627ZM28.8301 8.57365L35.8062 9.73434L35.6355 10.7602L28.6594 9.59955L28.8301 8.57365ZM22.4339 11.7266L26.9163 12.4724L26.7587 13.4194L22.2763 12.6736L22.4339 11.7266ZM23.1982 7.52306L27.5543 8.24784L27.3967 9.19482L23.0406 8.47005L23.1982 7.52306ZM22.082 13.8416L26.5644 14.5873L26.4068 15.5343L21.9245 14.7885L22.082 13.8416ZM22.0808 9.46197L27.7153 10.3994L27.5525 11.378L21.918 10.4405L22.0808 9.46197ZM22.2484 16.0589L26.2099 16.718L25.4431 21.3267L21.4816 20.6676L21.647 19.6732L24.5826 20.1617L25.0212 17.5259L22.0855 17.0375L22.2484 16.0589ZM21.7117 15.9696L22.7218 16.1377L21.8343 21.4724L20.8241 21.3043L21.7117 15.9696ZM43.1456 11.9287L55.3459 13.9586L55.191 14.8898L42.9907 12.8599L43.1456 11.9287ZM43.7091 13.9039L54.1732 15.645L54.0262 16.5288L43.562 14.7878L43.7091 13.9039ZM41.6578 15.4117L55.6415 17.7383L55.4892 18.6538L41.5055 16.3271L41.6578 15.4117ZM44.6182 19.8457L51.2471 20.9486L51.1263 21.6747L44.4974 20.5717L44.6182 19.8457ZM48.5646 13.2844L49.7799 13.4866L49.1733 17.1325L47.958 16.9303L48.5646 13.2844ZM47.8477 17.7879L48.9841 17.9769L48.7504 19.3816L47.614 19.1925L47.8477 17.7879ZM45.5048 11.0074L46.5937 10.7993C46.9884 11.3515 47.3332 12.1064 47.478 12.6008L46.2971 12.8747C46.2022 12.3724 45.8627 11.586 45.5048 11.0074ZM52.3203 11.7683L53.5147 12.2914C53.0019 12.8387 52.4418 13.3781 51.9947 13.7254L51.0529 13.2443C51.4763 12.8444 52.0074 12.1866 52.3203 11.7683ZM51.3223 17.2792C52.0119 18.7889 53.6589 20.2956 55.4347 21.1263C55.1586 21.3237 54.7431 21.6763 54.5222 21.9315C52.7359 20.9693 51.0782 19.2337 50.3176 17.4689L51.3223 17.2792ZM47.8569 22.3147C48.8411 24.0032 51.3377 25.2782 54.3418 26.0376C54.0657 26.2349 53.7054 26.6454 53.5109 26.9374C50.4199 26.0176 47.9443 24.519 46.8837 22.4123L47.8569 22.3147ZM45.0176 18.2253L52.3567 19.4464L51.6844 23.4868L44.3453 22.2657L44.4792 21.4608L50.6346 22.4849L51.039 20.0544L44.8836 19.0302L45.0176 18.2253ZM44.2442 18.0966L45.4121 18.2909L44.3801 24.4937L43.2122 24.2993L44.2442 18.0966ZM41.4339 23.6791C43.191 23.8417 45.9398 24.0882 48.5966 24.3031L48.4364 25.2659C45.9033 25.0877 43.2597 24.8912 41.4 24.7602L41.4339 23.6791ZM52.7313 23.3366L53.5232 24.0361C52.4948 24.4651 51.1876 24.8153 50.1645 25.0181L49.5672 24.4159C50.5483 24.1737 51.9238 23.7051 52.7313 23.3366ZM45.8614 16.3706L46.8953 16.8833C45.5121 18.3725 43.345 19.4068 41.3565 19.9518C41.2355 19.7046 40.896 19.2102 40.6645 18.9446C42.6477 18.5284 44.6439 17.6441 45.8614 16.3706ZM65.5162 27.8968C64.5534 27.7366 63.7419 27.4961 63.0816 27.1754C62.4239 26.8389 61.8438 26.4261 61.3412 25.937L62.7572 24.2992C63.1466 24.6884 63.5913 25.0381 64.0911 25.3483C64.5936 25.6428 65.1842 25.8465 65.8629 25.9594C66.9203 26.1353 67.8225 25.9773 68.5694 25.4852C69.3189 24.9773 69.7725 24.2499 69.93 23.3029C70.0928 22.3243 69.8861 21.4708 69.3099 20.7424C68.752 20.0008 67.8497 19.5262 66.6028 19.3188L63.6672 18.8303L65.0537 10.4969L73.2451 11.8598L72.926 13.7774L66.747 12.7494L65.9985 17.2475L67.1823 17.4445C68.4134 17.6493 69.4275 18.037 70.2246 18.6076C71.0376 19.1808 71.6099 19.8842 71.9415 20.718C72.289 21.5543 72.3813 22.4618 72.2185 23.4403C72.0426 24.4978 71.6417 25.3962 71.0158 26.1355C70.4084 26.8617 69.6313 27.3893 68.6845 27.7183C67.7402 28.0316 66.6841 28.0911 65.5162 27.8968ZM87.8325 23.662L89.0162 23.8589L88.3886 27.6311C88.2862 28.2466 88.11 28.5255 87.6076 28.6203C87.1053 28.7152 86.3635 28.5917 85.2429 28.4053C85.248 28.0818 85.1453 27.6267 85.04 27.2848C85.8713 27.4555 86.6446 27.5842 86.884 27.6078C87.1076 27.6288 87.1786 27.592 87.2075 27.4184L87.8325 23.662ZM84.5682 23.7839L85.7152 24.3965C84.5792 25.5699 82.9697 26.6646 81.6153 27.2989C81.4153 27.0386 80.989 26.5784 80.7207 26.3391C82.0936 25.7889 83.5821 24.8363 84.5682 23.7839ZM92.4493 25.5493L93.5648 26.1566C91.3301 30.2291 87.7348 31.7557 81.6743 31.6232C81.6058 31.255 81.4479 30.7421 81.2426 30.416C87.0558 30.6695 90.4302 29.3008 92.4493 25.5493ZM81.5321 21.5594L95.6422 23.9071L95.4531 25.0435L81.3431 22.6958L81.5321 21.5594ZM89.1808 19.8476L94.5313 20.7378L94.3474 21.8426L88.997 20.9524L89.1808 19.8476ZM88.7804 17.867L89.9957 18.0692L89.0924 23.4986L87.8771 23.2964L88.7804 17.867ZM84.4904 18.4022L85.6899 18.6017L84.9993 22.7527L83.7998 22.5531L84.4904 18.4022ZM113.491 29.1313L114.196 29.9623C113.107 30.3651 111.555 30.6259 110.261 30.7999C110.232 30.5842 110.143 30.2449 110.053 30.0029C111.266 29.8316 112.683 29.4998 113.491 29.1313ZM108.861 29.0747L109.756 29.5479C108.977 30.3268 107.825 31.1083 106.858 31.5636C106.729 31.3638 106.41 30.9377 106.218 30.7273C107.157 30.3483 108.183 29.7404 108.861 29.0747ZM108.344 31.7947L109.328 32.2179C108.526 33.3334 107.303 34.3465 106.18 34.9544C106.038 34.7361 105.725 34.2785 105.517 34.0655C106.59 33.5628 107.652 32.7339 108.344 31.7947ZM111.345 30.3314C111.692 32.4329 112.772 34.5264 114.324 35.6281C114.053 35.7939 113.656 36.1333 113.453 36.3754C111.883 35.0922 110.854 32.7962 110.535 30.4237L111.345 30.3314ZM114.052 31.025L114.701 31.7982C113.794 32.2798 112.724 32.7667 111.914 33.0537L111.437 32.4067C112.237 32.0856 113.378 31.4645 114.052 31.025ZM110.124 29.7714L111.182 29.9474L110.118 36.3395L109.061 36.1636L110.124 29.7714ZM102.62 23.3001L107.008 24.0302L106.853 24.9614L102.465 24.2313L102.62 23.3001ZM102.224 25.6834L106.643 26.4187L106.491 27.3341L102.072 26.5988L102.224 25.6834ZM101.225 27.9826L106.055 28.7862L105.897 29.7332L101.067 28.9296L101.225 27.9826ZM104.716 21.7187L105.663 21.8763L104.474 29.026L103.527 28.8684L104.716 21.7187ZM103.78 30.273L104.348 30.1729C104.64 30.854 104.893 31.772 104.959 32.3506L104.351 32.4929C104.288 31.8984 104.051 30.9831 103.78 30.273ZM102.78 30.3337L103.369 30.302C103.551 31.1595 103.659 32.2642 103.609 32.9534L102.97 32.993C103.023 32.2881 102.946 31.1886 102.78 30.3337ZM101.791 30.3314L102.42 30.3549C102.423 31.3123 102.307 32.4934 102.163 33.2642L101.503 33.2354C101.663 32.4673 101.778 31.2862 101.791 30.3314ZM100.797 29.874L101.502 30.121C101.205 31.5152 100.798 32.9884 100.069 33.7593L99.4693 33.2702C100.137 32.5703 100.529 31.1919 100.797 29.874ZM102.422 20.7856L107.71 21.6653L107.55 22.628L103.241 21.9111L102.114 28.682L101.136 28.5192L102.422 20.7856ZM105.676 28.7231L106.654 28.886C106.654 28.886 106.604 29.1858 106.562 29.341C105.748 33.2605 105.375 34.6258 104.92 35.0205C104.649 35.2836 104.397 35.3389 104.028 35.3101C103.723 35.2918 103.187 35.2025 102.671 35.0842C102.684 34.8107 102.658 34.3846 102.573 34.111C103.084 34.2608 103.541 34.337 103.747 34.3711C103.936 34.4026 104.052 34.3894 104.189 34.25C104.507 33.9948 104.875 32.6611 105.647 28.8968L105.676 28.7231ZM107.978 21.7099L112.65 22.4872L112.503 23.371L107.831 22.5938L107.978 21.7099ZM112.347 23.037L115.236 23.5176L115.083 24.433L112.195 23.9524L112.347 23.037ZM108.647 23.6378L111.14 24.0527L111.017 24.7945L108.523 24.3796L108.647 23.6378ZM108.376 25.2634L110.87 25.6783L110.747 26.4201L108.253 26.0052L108.376 25.2634ZM108.473 22.2464L109.357 22.3934L108.511 27.4756L107.627 27.3285L108.473 22.2464ZM110.919 22.6534L111.819 22.8031L110.771 29.1005L109.871 28.9508L110.919 22.6534ZM106.72 27.0315C107.795 27.097 109.263 27.1465 110.797 27.1908L110.71 28.0036C109.316 27.9988 107.909 27.9755 106.775 27.9653L106.72 27.0315ZM115.015 23.4808L115.188 23.5097L115.367 23.507L115.907 23.7752C114.984 26.4926 113.393 28.1581 111.573 28.8609C111.486 28.6032 111.292 28.2139 111.118 27.9904C112.696 27.4744 114.19 25.9063 114.986 23.6544L115.015 23.4808ZM111.793 25.1994L112.545 24.6757C113.621 25.8117 114.953 27.3633 115.574 28.3101L114.756 28.9363C114.156 27.9606 112.851 26.3485 111.793 25.1994ZM129.144 39.3429L128.042 38.754L134.643 26.5682L135.745 27.1571L129.144 39.3429Z" fill="#626262"/>
</svg>
