<svg width="39" height="42" viewBox="0 0 39 42" fill="none" xmlns="http://www.w3.org/2000/svg">
<rect x="38.1953" width="41.0015" height="38.1966" rx="10" transform="rotate(89.9141 38.1953 0)" fill="#52A038"/>
<path d="M33.4998 13.2492C33.271 13.135 33.0248 13.0713 32.7742 13.0613L32.7479 13.0602C31.4235 13.026 29.879 14.3705 29.0091 16.4666C27.9664 18.9743 28.2848 21.5992 29.7273 22.3321C29.9558 22.4463 30.2018 22.51 30.4522 22.5199C31.7822 22.5768 33.3474 21.225 34.2245 19.115C35.2606 16.607 34.9357 13.9819 33.4998 13.2492ZM24.5353 22.8255C22.8582 19.3092 22.1261 17.9823 20.0395 17.8931C17.9528 17.8039 17.1032 19.0713 15.1324 22.4234C13.4453 25.2903 10.2786 25.3998 9.38469 27.8578C9.20543 28.3074 9.10437 28.7912 9.08712 29.2825C9.00046 31.3091 10.2951 33.008 11.9749 33.0798C14.0615 33.169 16.9837 31.3981 19.464 31.5042C21.9443 31.6102 24.6915 33.6236 26.7781 33.7128C28.4579 33.7846 29.8863 32.203 29.973 30.1756C29.9955 29.6841 29.9339 29.1933 29.7915 28.7304C29.1111 26.1961 25.9715 25.8259 24.5353 22.8255ZM16.0137 14.4354C16.1015 14.4393 16.1896 14.4355 16.2771 14.4243C17.8108 14.2382 18.8641 11.8819 18.6347 9.16C18.419 6.59404 17.1371 4.6269 15.7113 4.56593C15.6234 4.56209 15.5354 4.56582 15.4479 4.57707C13.9142 4.76312 12.8609 7.1195 13.0903 9.84136C13.3062 12.3999 14.5878 14.3745 16.0137 14.4354ZM27.6487 10.4639C28.1096 7.77156 27.2613 5.33387 25.7491 5.01756C25.6628 4.99888 25.5754 4.98765 25.4875 4.98398C24.0617 4.92301 22.6192 6.77364 22.1846 9.31179C21.7237 12.0041 22.572 14.4418 24.0842 14.7581C24.1704 14.7768 24.2578 14.788 24.3457 14.7917C25.7716 14.8527 27.217 12.9947 27.6487 10.4639ZM10.01 21.489C11.5079 20.881 12.0486 18.2906 11.225 15.7062C10.5319 13.529 9.08913 12.0485 7.76104 11.9917C7.51069 11.9803 7.26016 12.0228 7.02272 12.117C5.52488 12.725 4.98419 15.3153 5.80779 17.8998C6.50091 20.077 7.94363 21.5574 9.27172 21.6142C9.52208 21.6257 9.7726 21.5832 10.01 21.489Z" stroke="white" stroke-width="3" stroke-miterlimit="10"/>
</svg>
