<svg width="39" height="26" viewBox="0 0 39 26" fill="none" xmlns="http://www.w3.org/2000/svg">
<path id="Vector" d="M26.7876 13.0548L36.7834 4.30796V21.7019L26.7876 13.0548ZM13.9073 14.5361L17.4175 17.605C17.9684 18.0764 18.6867 18.3612 19.4716 18.3612H19.4992H19.5203C20.3068 18.3612 21.0251 18.0748 21.5825 17.6001L21.5777 17.6034L25.0878 14.5345L35.758 23.7642H3.24201L13.9073 14.5361ZM3.22738 2.23418H35.7775L20.1427 15.911C19.9669 16.051 19.7493 16.1272 19.5252 16.127H19.5024H19.4813C19.2564 16.1273 19.038 16.0506 18.8622 15.9093L18.8638 15.911L3.22738 2.23418ZM2.21822 4.30633L12.2124 13.0532L2.21822 21.6953V4.30633ZM37.3197 0.310985C36.9297 0.114574 36.4714 0 35.9855 0H3.021C2.54999 0.000113321 2.08546 0.110499 1.66407 0.322443L1.68194 0.314259C1.17748 0.564866 0.752647 0.952562 0.455432 1.43355C0.158218 1.91454 0.00046696 2.46966 0 3.0362L0 22.9589C0.000860317 23.7652 0.319248 24.5382 0.885305 25.1083C1.45136 25.6785 2.21885 25.9991 3.01938 26H35.9806C36.7812 25.9991 37.5486 25.6785 38.1147 25.1083C38.6808 24.5382 38.9991 23.7652 39 22.9589V3.0362C39 1.84627 38.3191 0.815109 37.3278 0.319169L37.3099 0.310985H37.3197Z" fill="#626262"/>
</svg>
