<svg width="63" height="66" viewBox="0 0 63 66" fill="none" xmlns="http://www.w3.org/2000/svg">
<g id="ion:paw-outline">
<rect x="62.2773" y="0.702637" width="65.2662" height="60.8014" rx="10" transform="rotate(90.6621 62.2773 0.702637)" fill="#52A038"/>
<path id="Vector" d="M53.2797 24.0441C52.918 23.8576 52.5274 23.751 52.1287 23.73L52.087 23.7277C49.9796 23.6457 47.4934 25.7536 46.0652 29.0719C44.3535 33.0416 44.8057 37.2261 47.0864 38.4227C47.4477 38.6091 47.8379 38.7157 48.2363 38.7367C50.3521 38.8549 52.8714 36.7357 54.3113 33.3955C56.0126 29.4252 55.55 25.2401 53.2797 24.0441ZM38.8123 39.1C36.2159 33.4684 35.0782 31.3413 31.7589 31.1559C28.4395 30.9706 27.0609 32.9702 23.8543 38.2647C21.1094 42.7928 16.0669 42.9013 14.593 46.795C14.2983 47.5069 14.1274 48.2749 14.0898 49.0565C13.9097 52.2803 15.9351 55.0113 18.6073 55.1605C21.9266 55.3459 26.6145 52.5879 30.5601 52.8082C34.5057 53.0286 38.8365 56.2903 42.1558 56.4757C44.828 56.6249 47.1344 54.1371 47.3145 50.912C47.3605 50.1301 47.2727 49.3477 47.0557 48.608C46.0253 44.5601 41.0359 43.9056 38.8123 39.1ZM25.423 25.5688C25.5628 25.5768 25.703 25.5727 25.8425 25.5566C28.2876 25.2923 30.013 21.5636 29.7045 17.2266C29.4145 13.138 27.415 9.98029 25.1468 9.85362C25.0071 9.84568 24.8668 9.84978 24.7273 9.86587C22.2823 10.1301 20.5568 13.8588 20.8654 18.1959C21.156 22.2726 23.1548 25.4422 25.423 25.5688ZM44.0246 19.4893C44.8141 15.2135 43.5146 11.3159 41.1142 10.781C40.9773 10.7495 40.8384 10.7298 40.6987 10.7222C38.4304 10.5955 36.096 13.5111 35.3515 17.542C34.562 21.8177 35.8615 25.7153 38.2619 26.2502C38.3987 26.2817 38.5376 26.3014 38.6774 26.3091C40.9456 26.4357 43.2849 23.5085 44.0246 19.4893ZM15.7207 36.671C18.1174 35.7344 19.0318 31.6226 17.7746 27.4919C16.7166 24.0122 14.4511 21.6258 12.3384 21.5078C11.9401 21.4843 11.5405 21.5468 11.1606 21.6918C8.76391 22.6284 7.84949 26.7402 9.10669 30.8709C10.1647 34.3507 12.4302 36.737 14.5429 36.855C14.9412 36.8785 15.3408 36.816 15.7207 36.671Z" stroke="white" stroke-width="3" stroke-miterlimit="10"/>
</g>
</svg>
