<svg width="20" height="12" viewBox="0 0 20 12" fill="none" xmlns="http://www.w3.org/2000/svg">
<path id="Vector" d="M9.41222 11.1996L0.874384 1.46578C0.731854 1.30336 0.652344 1.08759 0.652344 0.863199C0.652344 0.638813 0.731854 0.423038 0.874384 0.260625L0.884032 0.250144C0.953128 0.171137 1.0363 0.108226 1.12848 0.0652351C1.22067 0.0222454 1.31994 7.53403e-05 1.42026 7.53403e-05C1.52058 7.53403e-05 1.61985 0.0222454 1.71204 0.0652351C1.80422 0.108226 1.88739 0.171137 1.95649 0.250144L9.99588 9.41629L18.0321 0.250144C18.1012 0.171137 18.1843 0.108226 18.2765 0.0652351C18.3687 0.0222454 18.468 7.53403e-05 18.5683 7.53403e-05C18.6686 7.53403e-05 18.7679 0.0222454 18.8601 0.0652351C18.9523 0.108226 19.0354 0.171137 19.1045 0.250144L19.1142 0.260625C19.2567 0.423038 19.3362 0.638813 19.3362 0.863199C19.3362 1.08759 19.2567 1.30336 19.1142 1.46578L10.5763 11.1996C10.5012 11.2852 10.4109 11.3533 10.3109 11.3999C10.2108 11.4464 10.1031 11.4705 9.99427 11.4705C9.88543 11.4705 9.77771 11.4464 9.67766 11.3999C9.57761 11.3533 9.48731 11.2852 9.41222 11.1996Z" fill="#52A038"/>
</svg>
