<svg width="68" height="334" viewBox="0 0 68 334" fill="none" xmlns="http://www.w3.org/2000/svg">
<path d="M67.0228 1.99781C67.5679 1.90894 67.9377 1.39502 67.8488 0.849931C67.76 0.304844 67.246 -0.0649948 66.7009 0.0238739L67.0228 1.99781ZM57.4235 328.8L48.0279 322.088L46.9126 333.581L57.4235 328.8ZM37.8787 198.225L38.8643 198.056L38.8473 197.957L38.8109 197.863L37.8787 198.225ZM31.9805 207.87L31.9716 208.87L31.9805 207.87ZM38.8109 197.863C34.6551 187.166 30.4064 180.703 26.1843 177.853C24.0357 176.403 21.8535 175.863 19.7086 176.239C17.5864 176.61 15.6391 177.852 13.8865 179.699C10.4014 183.373 7.45598 189.68 5.19774 197.55C2.93038 205.452 1.32298 215.047 0.587559 225.409C-0.882441 246.122 1.12351 270.021 8.41301 289.718C15.7006 309.41 28.3541 325.092 48.2737 328.913L48.6505 326.949C29.7024 323.314 17.4542 308.386 10.2887 289.024C3.12504 269.667 1.12632 246.069 2.58254 225.551C3.31023 215.297 4.89866 205.843 7.12016 198.101C9.35079 190.328 12.1873 184.396 15.3374 181.076C16.9024 179.426 18.486 178.483 20.0531 178.209C21.5975 177.939 23.263 178.295 25.0655 179.511C28.7456 181.995 32.8126 187.947 36.9466 198.587L38.8109 197.863ZM66.7009 0.0238739C50.6964 2.63319 37.2032 17.1764 26.7979 37.0702C16.3619 57.0229 8.88319 82.6318 5.03555 107.905C1.18898 133.171 0.956801 158.197 5.0861 176.984C7.14996 186.374 10.3199 194.282 14.7408 199.879C19.1849 205.506 24.9092 208.807 31.9716 208.87L31.9895 206.87C25.6349 206.813 20.4473 203.877 16.3102 198.639C12.1499 193.372 9.06942 185.79 7.03947 176.555C2.98116 158.091 3.18774 133.33 7.01277 108.206C10.8367 83.0883 18.2625 57.7045 28.5702 37.9972C38.9086 18.2312 51.9985 4.44731 67.0228 1.99781L66.7009 0.0238739ZM31.9716 208.87C34.7238 208.894 36.8484 207.922 38.0598 205.895C39.2225 203.949 39.4108 201.24 38.8643 198.056L36.8932 198.394C37.4076 201.391 37.1453 203.526 36.3429 204.869C35.5891 206.13 34.2342 206.89 31.9895 206.87L31.9716 208.87Z" fill="#52A038"/>
</svg>
