<svg width="28" height="28" viewBox="0 0 28 28" fill="none" xmlns="http://www.w3.org/2000/svg">
<g id="entypo:image" clip-path="url(#clip0_847_5412)">
<path id="Vector" fill-rule="evenodd" clip-rule="evenodd" d="M26.6 2.7998H1.4C1.0287 2.7998 0.672601 2.9473 0.410051 3.20986C0.1475 3.47241 0 3.8285 0 4.1998L0 23.7998C0 24.1711 0.1475 24.5272 0.410051 24.7898C0.672601 25.0523 1.0287 25.1998 1.4 25.1998H26.6C26.9713 25.1998 27.3274 25.0523 27.59 24.7898C27.8525 24.5272 28 24.1711 28 23.7998V4.1998C28 3.8285 27.8525 3.47241 27.59 3.20986C27.3274 2.9473 26.9713 2.7998 26.6 2.7998ZM25.2 22.3998H2.8V5.5998H25.2V22.3998ZM20.041 15.2276L15.5176 17.4746L10.2396 8.9332L5.6 19.5998H22.4L20.041 15.2276ZM18.55 12.5998C19.0141 12.5998 19.4592 12.4154 19.7874 12.0872C20.1156 11.7591 20.3 11.3139 20.3 10.8498C20.3 10.3857 20.1156 9.94056 19.7874 9.61237C19.4592 9.28418 19.0141 9.0998 18.55 9.0998C18.0859 9.0998 17.6408 9.28418 17.3126 9.61237C16.9844 9.94056 16.8 10.3857 16.8 10.8498C16.8 11.3139 16.9844 11.7591 17.3126 12.0872C17.6408 12.4154 18.0859 12.5998 18.55 12.5998Z" fill="#52A038"/>
</g>
<defs>
<clipPath id="clip0_847_5412">
<rect width="28" height="28" fill="white"/>
</clipPath>
</defs>
</svg>
