<svg width="36" height="37" viewBox="0 0 36 37" fill="none" xmlns="http://www.w3.org/2000/svg">
<g id="octicon:x-16" filter="url(#filter0_d_2882_7499)">
<path id="Vector" d="M8.37047 8.37007C8.68688 8.05406 9.11578 7.87655 9.56297 7.87655C10.0102 7.87655 10.4391 8.05406 10.7555 8.37007L18.0005 15.6151L25.2455 8.37007C25.4517 8.14794 25.7141 7.98555 26.0049 7.90002C26.2957 7.81449 26.6042 7.80898 26.8979 7.88407C27.1916 7.95916 27.4595 8.11207 27.6736 8.32669C27.8877 8.54131 28.0399 8.8097 28.1142 9.10357C28.1894 9.39692 28.1842 9.7051 28.099 9.99572C28.0139 10.2863 27.852 10.5487 27.6305 10.7551L20.3855 18.0001L27.6305 25.2451C27.8526 25.4513 28.015 25.7137 28.1005 26.0045C28.186 26.2953 28.1916 26.6038 28.1165 26.8975C28.0414 27.1912 27.8885 27.4592 27.6738 27.6732C27.4592 27.8873 27.1908 28.0395 26.897 28.1138C26.6036 28.189 26.2954 28.1838 26.0048 28.0986C25.7142 28.0135 25.4519 27.8516 25.2455 27.6301L18.0005 20.3851L10.7555 27.6301C10.4354 27.928 10.0123 28.0902 9.57505 28.0827C9.13784 28.0751 8.72058 27.8984 8.41097 27.5896C8.10217 27.28 7.92542 26.8627 7.91787 26.4255C7.91032 25.9883 8.07255 25.5652 8.37047 25.2451L15.6155 18.0001L8.37047 10.7551C8.05445 10.4387 7.87695 10.0098 7.87695 9.56257C7.87695 9.11538 8.05445 8.68648 8.37047 8.37007Z" fill="#52A038"/>
</g>
<defs>
<filter id="filter0_d_2882_7499" x="-4" y="0" width="44" height="44" filterUnits="userSpaceOnUse" color-interpolation-filters="sRGB">
<feFlood flood-opacity="0" result="BackgroundImageFix"/>
<feColorMatrix in="SourceAlpha" type="matrix" values="0 0 0 0 0 0 0 0 0 0 0 0 0 0 0 0 0 0 127 0" result="hardAlpha"/>
<feOffset dy="4"/>
<feGaussianBlur stdDeviation="2"/>
<feComposite in2="hardAlpha" operator="out"/>
<feColorMatrix type="matrix" values="0 0 0 0 0 0 0 0 0 0 0 0 0 0 0 0 0 0 0.25 0"/>
<feBlend mode="normal" in2="BackgroundImageFix" result="effect1_dropShadow_2882_7499"/>
<feBlend mode="normal" in="SourceGraphic" in2="effect1_dropShadow_2882_7499" result="shape"/>
</filter>
</defs>
</svg>
