<svg width="50" height="50" viewBox="0 0 50 50" fill="none" xmlns="http://www.w3.org/2000/svg">
<path d="M40.625 25C40.625 24.5856 40.7896 24.1882 41.0826 23.8951C41.3757 23.6021 41.7731 23.4375 42.1875 23.4375C42.6019 23.4375 42.9993 23.6021 43.2924 23.8951C43.5854 24.1882 43.75 24.5856 43.75 25V42.1875C43.75 42.6019 43.5854 42.9993 43.2924 43.2924C42.9993 43.5854 42.6019 43.75 42.1875 43.75H7.8125C7.3981 43.75 7.00067 43.5854 6.70765 43.2924C6.41462 42.9993 6.25 42.6019 6.25 42.1875V7.8125C6.25 7.3981 6.41462 7.00067 6.70765 6.70765C7.00067 6.41462 7.3981 6.25 7.8125 6.25H25C25.4144 6.25 25.8118 6.41462 26.1049 6.70765C26.3979 7.00067 26.5625 7.3981 26.5625 7.8125C26.5625 8.2269 26.3979 8.62433 26.1049 8.91735C25.8118 9.21038 25.4144 9.375 25 9.375H9.375V40.625H40.625V25Z" fill="#52A038"/>
<path d="M22.9463 27.0627L25.5245 26.6939L41.362 10.8595C41.5112 10.7154 41.6302 10.543 41.7121 10.3524C41.794 10.1617 41.8371 9.9567 41.8389 9.74924C41.8407 9.54177 41.8012 9.33602 41.7226 9.14399C41.6441 8.95197 41.528 8.77751 41.3813 8.6308C41.2346 8.4841 41.0602 8.36808 40.8681 8.28951C40.6761 8.21095 40.4704 8.17141 40.2629 8.17322C40.0554 8.17502 39.8504 8.21812 39.6598 8.30001C39.4691 8.3819 39.2967 8.50094 39.1526 8.65017L23.312 24.4845L22.9432 27.0627H22.9463ZM43.5713 6.43767C44.0069 6.87298 44.3525 7.38986 44.5882 7.95877C44.824 8.52768 44.9453 9.13747 44.9453 9.7533C44.9453 10.3691 44.824 10.9789 44.5882 11.5478C44.3525 12.1167 44.0069 12.6336 43.5713 13.0689L27.3682 29.272C27.1293 29.5119 26.8189 29.6676 26.4838 29.7158L21.3276 30.4533C21.0873 30.4878 20.8423 30.4658 20.6119 30.3892C20.3816 30.3125 20.1723 30.1832 20.0006 30.0115C19.829 29.8399 19.6997 29.6306 19.623 29.4002C19.5463 29.1699 19.5243 28.9248 19.5588 28.6845L20.2963 23.5283C20.3437 23.1936 20.4983 22.8833 20.737 22.6439L36.9432 6.4408C37.8222 5.56203 39.0143 5.06836 40.2573 5.06836C41.5002 5.06836 42.6923 5.56203 43.5713 6.4408V6.43767Z" fill="#52A038"/>
</svg>
