<svg width="29" height="29" viewBox="0 0 29 29" fill="none" xmlns="http://www.w3.org/2000/svg">
<path d="M26.6857 8.46011C26.4711 8.36181 26.2427 8.31171 26.0125 8.31245H25.9884C24.7729 8.33355 23.4145 9.66174 22.7065 11.6706C21.8576 14.0738 22.2614 16.5326 23.6149 17.1647C23.8293 17.263 24.0575 17.3131 24.2874 17.3124C25.5091 17.3124 26.8861 15.9765 27.6001 13.9543C28.4429 11.551 28.0332 9.09221 26.6857 8.46011ZM18.8767 17.8383C17.1894 14.5948 16.4617 13.3749 14.5452 13.3749C12.6287 13.3749 11.9039 14.6026 10.2403 17.8383C8.81603 20.6058 5.91798 20.8364 5.20336 23.187C5.05821 23.6175 4.98621 24.0772 4.99134 24.5405C4.99834 26.4523 6.25757 27.9998 7.80043 27.9998C9.71695 27.9998 12.32 26.2146 14.5982 26.2146C16.8763 26.2146 19.4804 27.9998 21.3969 27.9998C22.9398 27.9998 24.1816 26.453 24.1747 24.5405C24.1743 24.0767 24.0969 23.6171 23.9467 23.187C23.2149 20.828 20.3212 20.6058 18.8767 17.8383ZM10.7074 10.2812C10.7881 10.2813 10.8687 10.2742 10.9484 10.2601C12.3464 10.0231 13.2114 7.76191 12.8851 5.20818C12.5779 2.80069 11.319 1 10.0094 1C9.92866 0.999924 9.84809 1.00698 9.76836 1.02109C8.37041 1.25805 7.50539 3.51928 7.83174 6.07301C8.13885 8.47347 9.39783 10.2812 10.7074 10.2812ZM21.2034 6.07301C21.5111 3.51928 20.6295 1.25805 19.2298 1.02109C19.15 1.00698 19.0694 0.999924 18.9887 1C17.6791 1 16.4357 2.80069 16.1456 5.20818C15.8379 7.76191 16.7194 10.0231 18.1191 10.2601C18.199 10.2742 18.2796 10.2813 18.3603 10.2812C19.6699 10.2812 20.9157 8.47347 21.2034 6.07301ZM5.50498 17.1647C6.85206 16.5319 7.23722 14.071 6.37203 11.6706C5.64383 9.64838 4.2582 8.31245 3.03838 8.31245C2.8084 8.31172 2.58056 8.36182 2.36693 8.46011C1.01984 9.09292 0.63469 11.5538 1.49988 13.9543C2.22808 15.9765 3.6137 17.3124 4.83353 17.3124C5.06351 17.3131 5.29134 17.263 5.50498 17.1647Z" fill="#FEDD88" stroke="#FEDD88" stroke-miterlimit="10"/>
</svg>
