<svg width="555" height="715" viewBox="0 0 555 715" fill="none" xmlns="http://www.w3.org/2000/svg">
<g clip-path="url(#clip0_3361_8390)" filter="url(#filter0_d_3361_8390)">
<rect width="535" height="695" transform="translate(10 6)" fill="white"/>
<path opacity="0.5" fill-rule="evenodd" clip-rule="evenodd" d="M463.287 -347.492C508.386 -359.901 559.114 -414.203 596.404 -385.967C638.292 -354.249 581.775 -271.173 616.338 -231.6C653.453 -189.106 736.09 -221.123 775.578 -180.824C812.518 -143.126 846.073 -71.6724 814.487 -29.3871C775.055 23.4002 675.317 -23.3543 625.628 19.9161C588.486 52.2597 625.291 124.164 594.25 162.401C563.82 199.884 510.337 230.721 463.287 219.891C412.88 208.288 407.006 125.987 358.462 108.126C302.064 87.3748 208.317 169.208 180.608 115.883C149.298 55.6281 276.794 2.31281 268.46 -65.0781C261.363 -122.469 152.878 -125.39 143.711 -182.487C136.101 -229.891 191.188 -268.44 231.666 -294.258C269.359 -318.299 317.749 -311.267 361.321 -321.282C395.957 -329.242 429.021 -338.064 463.287 -347.492Z" fill="#B68337"/>
<path opacity="0.5" fill-rule="evenodd" clip-rule="evenodd" d="M33.004 490.553C55.8153 484.268 81.4739 456.769 100.336 471.068C121.523 487.131 92.936 529.203 110.418 549.243C129.191 570.763 170.99 554.549 190.963 574.957C209.648 594.048 226.62 630.234 210.643 651.648C190.699 678.381 140.25 654.703 115.117 676.617C96.3307 692.996 114.947 729.41 99.2459 748.774C83.8544 767.757 56.8022 783.373 33.004 777.888C7.50756 772.012 4.5364 730.333 -20.0175 721.288C-48.544 710.779 -95.9619 752.221 -109.977 725.216C-125.814 694.702 -61.3259 667.702 -65.5411 633.574C-69.1309 604.509 -124.004 603.03 -128.64 574.115C-132.49 550.108 -104.626 530.587 -84.1518 517.512C-65.0863 505.337 -40.6103 508.898 -18.5716 503.826C-1.05225 499.795 15.672 495.327 33.004 490.553Z" fill="#B68337"/>
</g>
<defs>
<filter id="filter0_d_3361_8390" x="0" y="0" width="555" height="715" filterUnits="userSpaceOnUse" color-interpolation-filters="sRGB">
<feFlood flood-opacity="0" result="BackgroundImageFix"/>
<feColorMatrix in="SourceAlpha" type="matrix" values="0 0 0 0 0 0 0 0 0 0 0 0 0 0 0 0 0 0 127 0" result="hardAlpha"/>
<feOffset dy="4"/>
<feGaussianBlur stdDeviation="5"/>
<feComposite in2="hardAlpha" operator="out"/>
<feColorMatrix type="matrix" values="0 0 0 0 0 0 0 0 0 0 0 0 0 0 0 0 0 0 0.25 0"/>
<feBlend mode="normal" in2="BackgroundImageFix" result="effect1_dropShadow_3361_8390"/>
<feBlend mode="normal" in="SourceGraphic" in2="effect1_dropShadow_3361_8390" result="shape"/>
</filter>
<clipPath id="clip0_3361_8390">
<rect width="535" height="695" fill="white" transform="translate(10 6)"/>
</clipPath>
</defs>
</svg>
