<svg width="818" height="600" viewBox="0 0 818 600" fill="none" xmlns="http://www.w3.org/2000/svg">
<g clip-path="url(#clip0_2041_2112)">
<path opacity="0.5" fill-rule="evenodd" clip-rule="evenodd" d="M597.287 487.508C642.386 475.099 693.114 420.797 730.404 449.033C772.292 480.751 715.775 563.827 750.338 603.4C787.453 645.894 870.09 613.877 909.578 654.176C946.518 691.874 980.073 763.328 948.487 805.613C909.055 858.4 809.317 811.646 759.628 854.916C722.486 887.26 759.291 959.164 728.25 997.401C697.82 1034.88 644.337 1065.72 597.287 1054.89C546.88 1043.29 541.006 960.987 492.462 943.126C436.064 922.375 342.317 1004.21 314.608 950.883C283.298 890.628 410.794 837.313 402.46 769.922C395.363 712.531 286.878 709.61 277.711 652.513C270.101 605.109 325.188 566.56 365.666 540.742C403.359 516.701 451.749 523.733 495.321 513.718C529.957 505.758 563.021 496.936 597.287 487.508Z" fill="#FFF98B"/>
<path opacity="0.5" fill-rule="evenodd" clip-rule="evenodd" d="M89.004 -72.4474C111.815 -78.7317 137.474 -106.231 156.336 -91.9317C177.523 -75.869 148.936 -33.7974 166.418 -13.757C185.191 7.763 226.99 -8.45088 246.963 11.957C265.648 31.0483 282.62 67.2341 266.643 88.6483C246.699 115.381 196.25 91.7035 171.117 113.617C152.331 129.996 170.947 166.41 155.246 185.774C139.854 204.757 112.802 220.373 89.004 214.888C63.5076 209.012 60.5364 167.333 35.9825 158.288C7.45596 147.779 -39.9619 189.221 -53.9774 162.216C-69.8144 131.702 -5.3259 104.702 -9.54115 70.5736C-13.1309 41.5094 -68.0037 40.0303 -72.6403 11.1149C-76.4898 -12.8916 -48.6262 -32.4134 -28.1518 -45.4882C-9.08633 -57.6632 15.3897 -54.1024 37.4284 -59.1738C54.9477 -63.2052 71.672 -67.6726 89.004 -72.4474Z" fill="#FFF98B"/>
</g>
<defs>
<clipPath id="clip0_2041_2112">
<rect width="818" height="600" fill="white"/>
</clipPath>
</defs>
</svg>
