<svg width="80" height="80" viewBox="0 0 80 80" fill="none" xmlns="http://www.w3.org/2000/svg">
<path d="M61.25 0H18.75C8.39466 0 0 8.39466 0 18.75V61.25C0 71.6053 8.39466 80 18.75 80H61.25C71.6053 80 80 71.6053 80 61.25V18.75C80 8.39466 71.6053 0 61.25 0Z" fill="#F4F2ED"/>
<path d="M13.0113 63.4494H22.9544V39.3016L8.75 28.6484V59.1881C8.75 61.5459 10.6606 63.4494 13.0113 63.4494Z" fill="#4285F4"/>
<path d="M57.0449 63.4497H66.9884C69.3462 63.4497 71.2496 61.5391 71.2496 59.1884V28.6484L57.0449 39.3019" fill="#34A853"/>
<path d="M57.0449 20.8362V39.3021L71.2496 28.649V22.9665C71.2496 17.6968 65.234 14.6924 61.0224 17.8531" fill="#FBBC04"/>
<path d="M22.9551 39.3022V20.8366L40.0004 33.62L57.0457 20.8359V39.3019L40.0004 52.0863" fill="#EA4335"/>
<path d="M8.75 22.9665V28.6484L22.9544 39.3018V20.8362L18.9772 17.8531C14.7584 14.6924 8.75 17.6968 8.75 22.9665Z" fill="#C5221F"/>
</svg>
