<svg width="900" height="700" viewBox="0 0 900 700" fill="none" xmlns="http://www.w3.org/2000/svg">
<g clip-path="url(#clip0_2041_2348)">
<path opacity="0.5" fill-rule="evenodd" clip-rule="evenodd" d="M1001.29 -122.492C1046.39 -134.901 1097.11 -189.203 1134.4 -160.967C1176.29 -129.249 1119.78 -46.1727 1154.34 -6.6001C1191.45 35.894 1274.09 3.87746 1313.58 44.1756C1350.52 81.8738 1384.07 153.328 1352.49 195.613C1313.06 248.4 1213.32 201.646 1163.63 244.916C1126.49 277.26 1163.29 349.164 1132.25 387.401C1101.82 424.884 1048.34 455.721 1001.29 444.891C950.88 433.288 945.006 350.987 896.462 333.126C840.064 312.375 746.317 394.208 718.608 340.883C687.298 280.628 814.794 227.313 806.46 159.922C799.363 102.531 690.878 99.61 681.711 42.5128C674.101 -4.89131 729.188 -43.4398 769.666 -69.2576C807.359 -93.2988 855.749 -86.2675 899.321 -96.2817C933.957 -104.242 967.021 -113.064 1001.29 -122.492Z" fill="#B68337"/>
<path opacity="0.5" fill-rule="evenodd" clip-rule="evenodd" d="M37.004 477.553C59.8153 471.268 85.4739 443.769 104.336 458.068C125.523 474.131 96.936 516.203 114.418 536.243C133.191 557.763 174.99 541.549 194.963 561.957C213.648 581.048 230.62 617.234 214.643 638.648C194.699 665.381 144.25 641.703 119.117 663.617C100.331 679.996 118.947 716.41 103.246 735.774C87.8544 754.757 60.8022 770.373 37.004 764.888C11.5076 759.012 8.5364 717.333 -16.0175 708.288C-44.544 697.779 -91.9619 739.221 -105.977 712.216C-121.814 681.702 -57.3259 654.702 -61.5411 620.574C-65.1309 591.509 -120.004 590.03 -124.64 561.115C-128.49 537.108 -100.626 517.587 -80.1518 504.512C-61.0863 492.337 -36.6103 495.898 -14.5716 490.826C2.94775 486.795 19.672 482.327 37.004 477.553Z" fill="#B68337"/>
</g>
<defs>
<clipPath id="clip0_2041_2348">
<rect width="900" height="700" fill="white"/>
</clipPath>
</defs>
</svg>
